<svg width="138" height="138" viewBox="0 0 138 138" fill="none" xmlns="http://www.w3.org/2000/svg">
<circle cx="68.6766" cy="68.6766" r="63.3425" stroke="black" stroke-width="10.6682"/>
<path d="M92.4802 49.0739C85.8852 40.2806 77.498 35.4219 68.6767 35.4219C59.8554 35.4219 51.4682 40.2806 44.8733 49.0739C39.9131 55.6863 33.9307 64.6161 33.1046 74.0115C32.681 78.8562 33.6191 83.8164 36.6716 88.5386C39.6855 93.2012 44.6107 97.3983 51.7763 101.07C56.1834 103.328 60.9826 100.3 61.6092 95.8791C60.1198 94.8757 58.7544 93.6996 57.5416 92.3751C53.9956 88.5071 51.1707 82.8432 51.1707 75.6777C51.1707 63.678 57.3666 55.6023 64.8227 53.4705C65.8098 53.1904 66.923 53.9326 67.042 54.9547C67.536 59.1868 69.5569 63.0933 72.7256 65.9418C75.8944 68.7902 79.9934 70.385 84.254 70.4269C86.6133 70.4479 86.1793 74.1375 86.1793 75.6777C86.1793 82.8432 83.3578 88.5071 79.8083 92.3751C78.5411 93.7613 77.1479 94.9445 75.7337 95.8861C76.2938 100.325 81.0475 103.377 85.4581 101.245C93.0367 97.5909 98.2105 93.3938 101.343 88.6961C104.518 83.9284 105.415 78.9052 104.868 74.015C103.818 64.5986 97.3879 55.6128 92.4802 49.0739Z" fill="black"/>
<path d="M85.3458 70.3436C86.3459 86.3459 80.7451 93.0135 75.6777 97.0141" stroke="#FF1911" stroke-width="2.00029" stroke-linejoin="round"/>
<path d="M85.3458 71.3437C88.3462 90.0131 82.0786 95.0138 77.0112 99.0144" stroke="#FF1911" stroke-width="2.00029" stroke-linejoin="round"/>
<path d="M85.3457 71.0103C91.0132 90.6798 83.3455 97.014 78.3447 101.015" stroke="#FF1911" stroke-width="2.00029" stroke-linejoin="round"/>
</svg>
