<svg width="85" height="85" viewBox="0 0 85 85" fill="none" xmlns="http://www.w3.org/2000/svg">
<path d="M65.8096 22.4033C59.2147 13.61 50.8275 8.75134 42.0062 8.75134C33.1849 8.75134 24.7977 13.61 18.2027 22.4033C13.2425 29.0158 7.26016 37.9456 6.43404 47.3409C6.01048 52.1856 6.94862 57.1458 10.0011 61.868C13.015 66.5307 17.9402 70.7278 25.1057 74.3998C29.5129 76.6577 34.3121 73.6297 34.9387 69.2086C33.4493 68.2052 32.0839 67.029 30.8711 65.7046C27.3251 61.8365 24.5002 56.1727 24.5002 49.0072C24.5002 37.0074 30.6961 28.9318 38.1521 26.8C39.1393 26.5199 40.2524 27.262 40.3714 28.2842C40.8655 32.5163 42.8864 36.4228 46.0551 39.2712C49.2238 42.1197 53.3228 43.7144 57.5834 43.7564C59.9428 43.7774 59.5087 47.4669 59.5087 49.0072C59.5087 56.1727 56.6873 61.8365 53.1378 65.7046C51.8706 67.0908 50.4774 68.274 49.0632 69.2156C49.6233 73.6542 54.377 76.7067 58.7876 74.5749C66.3662 70.9203 71.54 66.7232 74.6729 62.0256C77.8479 57.2579 78.744 52.2346 78.1979 47.3444C77.1478 37.9281 70.7173 28.9423 65.8096 22.4033Z" fill="black"/>
<path d="M58.6754 43.673C59.6755 59.6753 54.0747 66.343 49.0073 70.3436" stroke="#FF1911" stroke-width="2.00029" stroke-linejoin="round"/>
<path d="M58.6752 44.6732C61.6757 63.3426 55.4081 68.3433 50.3407 72.3439" stroke="#FF1911" stroke-width="2.00029" stroke-linejoin="round"/>
<path d="M58.6752 44.3397C64.3427 64.0092 56.6749 70.3435 51.6742 74.3441" stroke="#FF1911" stroke-width="2.00029" stroke-linejoin="round"/>
</svg>
