<svg width="549" height="590" viewBox="0 0 549 590" fill="none" xmlns="http://www.w3.org/2000/svg">
<g filter="url(#filter0_i_11_405)">
<path fill-rule="evenodd" clip-rule="evenodd" d="M147.066 261.023C142.321 251.209 139.876 240.441 139.917 229.54C139.917 219.215 142.057 209.551 145.852 200.726H145.742C147.428 196.762 149.497 192.971 151.919 189.408L151.986 189.342C159.56 177.726 163.592 164.159 163.59 150.292V150.049C163.59 130.739 171.261 112.221 184.915 98.5671C198.569 84.9132 217.087 77.2426 236.397 77.2426C238.362 77.284 240.308 76.8383 242.059 75.9452C243.811 75.0521 245.314 73.7394 246.435 72.1241C253.178 62.728 262.062 55.0734 272.352 49.7941C282.642 44.5149 294.042 41.7629 305.607 41.7661C317.168 41.7664 328.563 44.5201 338.849 49.7992C349.135 55.0783 358.016 62.731 364.756 72.1241C365.904 73.7192 367.415 75.0177 369.165 75.9117C370.914 76.8057 372.852 77.2695 374.817 77.2647H376.692C395.667 77.7593 413.698 85.6448 426.944 99.2406C440.19 112.836 447.602 131.068 447.601 150.049V150.269C447.595 164.144 451.628 177.72 459.206 189.342L459.25 189.43C466.173 199.929 470.259 212.041 471.109 224.587C471.96 237.134 469.546 249.687 464.104 261.023C463.343 262.587 462.948 264.303 462.948 266.042C462.948 267.782 463.343 269.498 464.104 271.062C469.398 281.882 471.847 293.873 471.22 305.903C470.593 317.932 466.911 329.604 460.521 339.816C454.132 350.027 445.245 358.442 434.7 364.266C424.156 370.09 412.301 373.13 400.255 373.101H210.937C198.889 373.134 187.031 370.096 176.484 364.274C165.936 358.452 157.046 350.037 150.654 339.825C144.262 329.613 140.578 317.94 139.95 305.908C139.322 293.877 141.771 281.884 147.066 271.062C147.826 269.498 148.222 267.782 148.222 266.042C148.222 264.303 147.826 262.587 147.066 261.023ZM417.552 202.05H417.839L391.386 254.029C388.672 315.849 364.536 254.029 305.607 254.029C246.656 254.029 220.953 322.864 218.239 261.023L193.176 190.489C194.368 163.022 214.268 161.08 218.239 161.08H289.281C303.129 161.114 316.776 157.77 329.04 151.338C341.304 144.906 351.814 135.58 359.66 124.17C360.26 123.316 361.078 122.639 362.03 122.209C362.981 121.78 364.03 121.614 365.067 121.729C366.104 121.844 367.092 122.236 367.926 122.863C368.76 123.49 369.41 124.33 369.809 125.295L371.64 129.575C374.153 135.764 377.863 141.395 382.558 146.146C387.253 150.898 392.839 154.676 398.997 157.263L400.145 157.705C405.351 160.418 417.574 168.515 418.015 189.452L417.795 196.204L417.552 202.05Z" fill="url(#paint0_linear_11_405)"/>
<path fill-rule="evenodd" clip-rule="evenodd" d="M147.066 261.023C142.321 251.209 139.876 240.441 139.917 229.54C139.917 219.215 142.057 209.551 145.852 200.726H145.742C147.428 196.762 149.497 192.971 151.919 189.408L151.986 189.342C159.56 177.726 163.592 164.159 163.59 150.292V150.049C163.59 130.739 171.261 112.221 184.915 98.5671C198.569 84.9132 217.087 77.2426 236.397 77.2426C238.362 77.284 240.308 76.8383 242.059 75.9452C243.811 75.0521 245.314 73.7394 246.435 72.1241C253.178 62.728 262.062 55.0734 272.352 49.7941C282.642 44.5149 294.042 41.7629 305.607 41.7661C317.168 41.7664 328.563 44.5201 338.849 49.7992C349.135 55.0783 358.016 62.731 364.756 72.1241C365.904 73.7192 367.415 75.0177 369.165 75.9117C370.914 76.8057 372.852 77.2695 374.817 77.2647H376.692C395.667 77.7593 413.698 85.6448 426.944 99.2406C440.19 112.836 447.602 131.068 447.601 150.049V150.269C447.595 164.144 451.628 177.72 459.206 189.342L459.25 189.43C466.173 199.929 470.259 212.041 471.109 224.587C471.96 237.134 469.546 249.687 464.104 261.023C463.343 262.587 462.948 264.303 462.948 266.042C462.948 267.782 463.343 269.498 464.104 271.062C469.398 281.882 471.847 293.873 471.22 305.903C470.593 317.932 466.911 329.604 460.521 339.816C454.132 350.027 445.245 358.442 434.7 364.266C424.156 370.09 412.301 373.13 400.255 373.101H210.937C198.889 373.134 187.031 370.096 176.484 364.274C165.936 358.452 157.046 350.037 150.654 339.825C144.262 329.613 140.578 317.94 139.95 305.908C139.322 293.877 141.771 281.884 147.066 271.062C147.826 269.498 148.222 267.782 148.222 266.042C148.222 264.303 147.826 262.587 147.066 261.023ZM417.552 202.05H417.839L391.386 254.029C388.672 315.849 364.536 254.029 305.607 254.029C246.656 254.029 220.953 322.864 218.239 261.023L193.176 190.489C194.368 163.022 214.268 161.08 218.239 161.08H289.281C303.129 161.114 316.776 157.77 329.04 151.338C341.304 144.906 351.814 135.58 359.66 124.17C360.26 123.316 361.078 122.639 362.03 122.209C362.981 121.78 364.03 121.614 365.067 121.729C366.104 121.844 367.092 122.236 367.926 122.863C368.76 123.49 369.41 124.33 369.809 125.295L371.64 129.575C374.153 135.764 377.863 141.395 382.558 146.146C387.253 150.898 392.839 154.676 398.997 157.263L400.145 157.705C405.351 160.418 417.574 168.515 418.015 189.452L417.795 196.204L417.552 202.05Z" fill="url(#paint1_radial_11_405)"/>
<path fill-rule="evenodd" clip-rule="evenodd" d="M147.066 261.023C142.321 251.209 139.876 240.441 139.917 229.54C139.917 219.215 142.057 209.551 145.852 200.726H145.742C147.428 196.762 149.497 192.971 151.919 189.408L151.986 189.342C159.56 177.726 163.592 164.159 163.59 150.292V150.049C163.59 130.739 171.261 112.221 184.915 98.5671C198.569 84.9132 217.087 77.2426 236.397 77.2426C238.362 77.284 240.308 76.8383 242.059 75.9452C243.811 75.0521 245.314 73.7394 246.435 72.1241C253.178 62.728 262.062 55.0734 272.352 49.7941C282.642 44.5149 294.042 41.7629 305.607 41.7661C317.168 41.7664 328.563 44.5201 338.849 49.7992C349.135 55.0783 358.016 62.731 364.756 72.1241C365.904 73.7192 367.415 75.0177 369.165 75.9117C370.914 76.8057 372.852 77.2695 374.817 77.2647H376.692C395.667 77.7593 413.698 85.6448 426.944 99.2406C440.19 112.836 447.602 131.068 447.601 150.049V150.269C447.595 164.144 451.628 177.72 459.206 189.342L459.25 189.43C466.173 199.929 470.259 212.041 471.109 224.587C471.96 237.134 469.546 249.687 464.104 261.023C463.343 262.587 462.948 264.303 462.948 266.042C462.948 267.782 463.343 269.498 464.104 271.062C469.398 281.882 471.847 293.873 471.22 305.903C470.593 317.932 466.911 329.604 460.521 339.816C454.132 350.027 445.245 358.442 434.7 364.266C424.156 370.09 412.301 373.13 400.255 373.101H210.937C198.889 373.134 187.031 370.096 176.484 364.274C165.936 358.452 157.046 350.037 150.654 339.825C144.262 329.613 140.578 317.94 139.95 305.908C139.322 293.877 141.771 281.884 147.066 271.062C147.826 269.498 148.222 267.782 148.222 266.042C148.222 264.303 147.826 262.587 147.066 261.023ZM417.552 202.05H417.839L391.386 254.029C388.672 315.849 364.536 254.029 305.607 254.029C246.656 254.029 220.953 322.864 218.239 261.023L193.176 190.489C194.368 163.022 214.268 161.08 218.239 161.08H289.281C303.129 161.114 316.776 157.77 329.04 151.338C341.304 144.906 351.814 135.58 359.66 124.17C360.26 123.316 361.078 122.639 362.03 122.209C362.981 121.78 364.03 121.614 365.067 121.729C366.104 121.844 367.092 122.236 367.926 122.863C368.76 123.49 369.41 124.33 369.809 125.295L371.64 129.575C374.153 135.764 377.863 141.395 382.558 146.146C387.253 150.898 392.839 154.676 398.997 157.263L400.145 157.705C405.351 160.418 417.574 168.515 418.015 189.452L417.795 196.204L417.552 202.05Z" fill="url(#paint2_radial_11_405)"/>
<path fill-rule="evenodd" clip-rule="evenodd" d="M147.066 261.023C142.321 251.209 139.876 240.441 139.917 229.54C139.917 219.215 142.057 209.551 145.852 200.726H145.742C147.428 196.762 149.497 192.971 151.919 189.408L151.986 189.342C159.56 177.726 163.592 164.159 163.59 150.292V150.049C163.59 130.739 171.261 112.221 184.915 98.5671C198.569 84.9132 217.087 77.2426 236.397 77.2426C238.362 77.284 240.308 76.8383 242.059 75.9452C243.811 75.0521 245.314 73.7394 246.435 72.1241C253.178 62.728 262.062 55.0734 272.352 49.7941C282.642 44.5149 294.042 41.7629 305.607 41.7661C317.168 41.7664 328.563 44.5201 338.849 49.7992C349.135 55.0783 358.016 62.731 364.756 72.1241C365.904 73.7192 367.415 75.0177 369.165 75.9117C370.914 76.8057 372.852 77.2695 374.817 77.2647H376.692C395.667 77.7593 413.698 85.6448 426.944 99.2406C440.19 112.836 447.602 131.068 447.601 150.049V150.269C447.595 164.144 451.628 177.72 459.206 189.342L459.25 189.43C466.173 199.929 470.259 212.041 471.109 224.587C471.96 237.134 469.546 249.687 464.104 261.023C463.343 262.587 462.948 264.303 462.948 266.042C462.948 267.782 463.343 269.498 464.104 271.062C469.398 281.882 471.847 293.873 471.22 305.903C470.593 317.932 466.911 329.604 460.521 339.816C454.132 350.027 445.245 358.442 434.7 364.266C424.156 370.09 412.301 373.13 400.255 373.101H210.937C198.889 373.134 187.031 370.096 176.484 364.274C165.936 358.452 157.046 350.037 150.654 339.825C144.262 329.613 140.578 317.94 139.95 305.908C139.322 293.877 141.771 281.884 147.066 271.062C147.826 269.498 148.222 267.782 148.222 266.042C148.222 264.303 147.826 262.587 147.066 261.023ZM417.552 202.05H417.839L391.386 254.029C388.672 315.849 364.536 254.029 305.607 254.029C246.656 254.029 220.953 322.864 218.239 261.023L193.176 190.489C194.368 163.022 214.268 161.08 218.239 161.08H289.281C303.129 161.114 316.776 157.77 329.04 151.338C341.304 144.906 351.814 135.58 359.66 124.17C360.26 123.316 361.078 122.639 362.03 122.209C362.981 121.78 364.03 121.614 365.067 121.729C366.104 121.844 367.092 122.236 367.926 122.863C368.76 123.49 369.41 124.33 369.809 125.295L371.64 129.575C374.153 135.764 377.863 141.395 382.558 146.146C387.253 150.898 392.839 154.676 398.997 157.263L400.145 157.705C405.351 160.418 417.574 168.515 418.015 189.452L417.795 196.204L417.552 202.05Z" fill="url(#paint3_radial_11_405)"/>
<path fill-rule="evenodd" clip-rule="evenodd" d="M147.066 261.023C142.321 251.209 139.876 240.441 139.917 229.54C139.917 219.215 142.057 209.551 145.852 200.726H145.742C147.428 196.762 149.497 192.971 151.919 189.408L151.986 189.342C159.56 177.726 163.592 164.159 163.59 150.292V150.049C163.59 130.739 171.261 112.221 184.915 98.5671C198.569 84.9132 217.087 77.2426 236.397 77.2426C238.362 77.284 240.308 76.8383 242.059 75.9452C243.811 75.0521 245.314 73.7394 246.435 72.1241C253.178 62.728 262.062 55.0734 272.352 49.7941C282.642 44.5149 294.042 41.7629 305.607 41.7661C317.168 41.7664 328.563 44.5201 338.849 49.7992C349.135 55.0783 358.016 62.731 364.756 72.1241C365.904 73.7192 367.415 75.0177 369.165 75.9117C370.914 76.8057 372.852 77.2695 374.817 77.2647H376.692C395.667 77.7593 413.698 85.6448 426.944 99.2406C440.19 112.836 447.602 131.068 447.601 150.049V150.269C447.595 164.144 451.628 177.72 459.206 189.342L459.25 189.43C466.173 199.929 470.259 212.041 471.109 224.587C471.96 237.134 469.546 249.687 464.104 261.023C463.343 262.587 462.948 264.303 462.948 266.042C462.948 267.782 463.343 269.498 464.104 271.062C469.398 281.882 471.847 293.873 471.22 305.903C470.593 317.932 466.911 329.604 460.521 339.816C454.132 350.027 445.245 358.442 434.7 364.266C424.156 370.09 412.301 373.13 400.255 373.101H210.937C198.889 373.134 187.031 370.096 176.484 364.274C165.936 358.452 157.046 350.037 150.654 339.825C144.262 329.613 140.578 317.94 139.95 305.908C139.322 293.877 141.771 281.884 147.066 271.062C147.826 269.498 148.222 267.782 148.222 266.042C148.222 264.303 147.826 262.587 147.066 261.023ZM417.552 202.05H417.839L391.386 254.029C388.672 315.849 364.536 254.029 305.607 254.029C246.656 254.029 220.953 322.864 218.239 261.023L193.176 190.489C194.368 163.022 214.268 161.08 218.239 161.08H289.281C303.129 161.114 316.776 157.77 329.04 151.338C341.304 144.906 351.814 135.58 359.66 124.17C360.26 123.316 361.078 122.639 362.03 122.209C362.981 121.78 364.03 121.614 365.067 121.729C366.104 121.844 367.092 122.236 367.926 122.863C368.76 123.49 369.41 124.33 369.809 125.295L371.64 129.575C374.153 135.764 377.863 141.395 382.558 146.146C387.253 150.898 392.839 154.676 398.997 157.263L400.145 157.705C405.351 160.418 417.574 168.515 418.015 189.452L417.795 196.204L417.552 202.05Z" fill="url(#paint4_radial_11_405)"/>
<path fill-rule="evenodd" clip-rule="evenodd" d="M147.066 261.023C142.321 251.209 139.876 240.441 139.917 229.54C139.917 219.215 142.057 209.551 145.852 200.726H145.742C147.428 196.762 149.497 192.971 151.919 189.408L151.986 189.342C159.56 177.726 163.592 164.159 163.59 150.292V150.049C163.59 130.739 171.261 112.221 184.915 98.5671C198.569 84.9132 217.087 77.2426 236.397 77.2426C238.362 77.284 240.308 76.8383 242.059 75.9452C243.811 75.0521 245.314 73.7394 246.435 72.1241C253.178 62.728 262.062 55.0734 272.352 49.7941C282.642 44.5149 294.042 41.7629 305.607 41.7661C317.168 41.7664 328.563 44.5201 338.849 49.7992C349.135 55.0783 358.016 62.731 364.756 72.1241C365.904 73.7192 367.415 75.0177 369.165 75.9117C370.914 76.8057 372.852 77.2695 374.817 77.2647H376.692C395.667 77.7593 413.698 85.6448 426.944 99.2406C440.19 112.836 447.602 131.068 447.601 150.049V150.269C447.595 164.144 451.628 177.72 459.206 189.342L459.25 189.43C466.173 199.929 470.259 212.041 471.109 224.587C471.96 237.134 469.546 249.687 464.104 261.023C463.343 262.587 462.948 264.303 462.948 266.042C462.948 267.782 463.343 269.498 464.104 271.062C469.398 281.882 471.847 293.873 471.22 305.903C470.593 317.932 466.911 329.604 460.521 339.816C454.132 350.027 445.245 358.442 434.7 364.266C424.156 370.09 412.301 373.13 400.255 373.101H210.937C198.889 373.134 187.031 370.096 176.484 364.274C165.936 358.452 157.046 350.037 150.654 339.825C144.262 329.613 140.578 317.94 139.95 305.908C139.322 293.877 141.771 281.884 147.066 271.062C147.826 269.498 148.222 267.782 148.222 266.042C148.222 264.303 147.826 262.587 147.066 261.023ZM417.552 202.05H417.839L391.386 254.029C388.672 315.849 364.536 254.029 305.607 254.029C246.656 254.029 220.953 322.864 218.239 261.023L193.176 190.489C194.368 163.022 214.268 161.08 218.239 161.08H289.281C303.129 161.114 316.776 157.77 329.04 151.338C341.304 144.906 351.814 135.58 359.66 124.17C360.26 123.316 361.078 122.639 362.03 122.209C362.981 121.78 364.03 121.614 365.067 121.729C366.104 121.844 367.092 122.236 367.926 122.863C368.76 123.49 369.41 124.33 369.809 125.295L371.64 129.575C374.153 135.764 377.863 141.395 382.558 146.146C387.253 150.898 392.839 154.676 398.997 157.263L400.145 157.705C405.351 160.418 417.574 168.515 418.015 189.452L417.795 196.204L417.552 202.05Z" fill="url(#paint5_radial_11_405)"/>
<path fill-rule="evenodd" clip-rule="evenodd" d="M147.066 261.023C142.321 251.209 139.876 240.441 139.917 229.54C139.917 219.215 142.057 209.551 145.852 200.726H145.742C147.428 196.762 149.497 192.971 151.919 189.408L151.986 189.342C159.56 177.726 163.592 164.159 163.59 150.292V150.049C163.59 130.739 171.261 112.221 184.915 98.5671C198.569 84.9132 217.087 77.2426 236.397 77.2426C238.362 77.284 240.308 76.8383 242.059 75.9452C243.811 75.0521 245.314 73.7394 246.435 72.1241C253.178 62.728 262.062 55.0734 272.352 49.7941C282.642 44.5149 294.042 41.7629 305.607 41.7661C317.168 41.7664 328.563 44.5201 338.849 49.7992C349.135 55.0783 358.016 62.731 364.756 72.1241C365.904 73.7192 367.415 75.0177 369.165 75.9117C370.914 76.8057 372.852 77.2695 374.817 77.2647H376.692C395.667 77.7593 413.698 85.6448 426.944 99.2406C440.19 112.836 447.602 131.068 447.601 150.049V150.269C447.595 164.144 451.628 177.72 459.206 189.342L459.25 189.43C466.173 199.929 470.259 212.041 471.109 224.587C471.96 237.134 469.546 249.687 464.104 261.023C463.343 262.587 462.948 264.303 462.948 266.042C462.948 267.782 463.343 269.498 464.104 271.062C469.398 281.882 471.847 293.873 471.22 305.903C470.593 317.932 466.911 329.604 460.521 339.816C454.132 350.027 445.245 358.442 434.7 364.266C424.156 370.09 412.301 373.13 400.255 373.101H210.937C198.889 373.134 187.031 370.096 176.484 364.274C165.936 358.452 157.046 350.037 150.654 339.825C144.262 329.613 140.578 317.94 139.95 305.908C139.322 293.877 141.771 281.884 147.066 271.062C147.826 269.498 148.222 267.782 148.222 266.042C148.222 264.303 147.826 262.587 147.066 261.023ZM417.552 202.05H417.839L391.386 254.029C388.672 315.849 364.536 254.029 305.607 254.029C246.656 254.029 220.953 322.864 218.239 261.023L193.176 190.489C194.368 163.022 214.268 161.08 218.239 161.08H289.281C303.129 161.114 316.776 157.77 329.04 151.338C341.304 144.906 351.814 135.58 359.66 124.17C360.26 123.316 361.078 122.639 362.03 122.209C362.981 121.78 364.03 121.614 365.067 121.729C366.104 121.844 367.092 122.236 367.926 122.863C368.76 123.49 369.41 124.33 369.809 125.295L371.64 129.575C374.153 135.764 377.863 141.395 382.558 146.146C387.253 150.898 392.839 154.676 398.997 157.263L400.145 157.705C405.351 160.418 417.574 168.515 418.015 189.452L417.795 196.204L417.552 202.05Z" fill="url(#paint6_radial_11_405)"/>
<path fill-rule="evenodd" clip-rule="evenodd" d="M147.066 261.023C142.321 251.209 139.876 240.441 139.917 229.54C139.917 219.215 142.057 209.551 145.852 200.726H145.742C147.428 196.762 149.497 192.971 151.919 189.408L151.986 189.342C159.56 177.726 163.592 164.159 163.59 150.292V150.049C163.59 130.739 171.261 112.221 184.915 98.5671C198.569 84.9132 217.087 77.2426 236.397 77.2426C238.362 77.284 240.308 76.8383 242.059 75.9452C243.811 75.0521 245.314 73.7394 246.435 72.1241C253.178 62.728 262.062 55.0734 272.352 49.7941C282.642 44.5149 294.042 41.7629 305.607 41.7661C317.168 41.7664 328.563 44.5201 338.849 49.7992C349.135 55.0783 358.016 62.731 364.756 72.1241C365.904 73.7192 367.415 75.0177 369.165 75.9117C370.914 76.8057 372.852 77.2695 374.817 77.2647H376.692C395.667 77.7593 413.698 85.6448 426.944 99.2406C440.19 112.836 447.602 131.068 447.601 150.049V150.269C447.595 164.144 451.628 177.72 459.206 189.342L459.25 189.43C466.173 199.929 470.259 212.041 471.109 224.587C471.96 237.134 469.546 249.687 464.104 261.023C463.343 262.587 462.948 264.303 462.948 266.042C462.948 267.782 463.343 269.498 464.104 271.062C469.398 281.882 471.847 293.873 471.22 305.903C470.593 317.932 466.911 329.604 460.521 339.816C454.132 350.027 445.245 358.442 434.7 364.266C424.156 370.09 412.301 373.13 400.255 373.101H210.937C198.889 373.134 187.031 370.096 176.484 364.274C165.936 358.452 157.046 350.037 150.654 339.825C144.262 329.613 140.578 317.94 139.95 305.908C139.322 293.877 141.771 281.884 147.066 271.062C147.826 269.498 148.222 267.782 148.222 266.042C148.222 264.303 147.826 262.587 147.066 261.023ZM417.552 202.05H417.839L391.386 254.029C388.672 315.849 364.536 254.029 305.607 254.029C246.656 254.029 220.953 322.864 218.239 261.023L193.176 190.489C194.368 163.022 214.268 161.08 218.239 161.08H289.281C303.129 161.114 316.776 157.77 329.04 151.338C341.304 144.906 351.814 135.58 359.66 124.17C360.26 123.316 361.078 122.639 362.03 122.209C362.981 121.78 364.03 121.614 365.067 121.729C366.104 121.844 367.092 122.236 367.926 122.863C368.76 123.49 369.41 124.33 369.809 125.295L371.64 129.575C374.153 135.764 377.863 141.395 382.558 146.146C387.253 150.898 392.839 154.676 398.997 157.263L400.145 157.705C405.351 160.418 417.574 168.515 418.015 189.452L417.795 196.204L417.552 202.05Z" fill="url(#paint7_radial_11_405)"/>
<path fill-rule="evenodd" clip-rule="evenodd" d="M147.066 261.023C142.321 251.209 139.876 240.441 139.917 229.54C139.917 219.215 142.057 209.551 145.852 200.726H145.742C147.428 196.762 149.497 192.971 151.919 189.408L151.986 189.342C159.56 177.726 163.592 164.159 163.59 150.292V150.049C163.59 130.739 171.261 112.221 184.915 98.5671C198.569 84.9132 217.087 77.2426 236.397 77.2426C238.362 77.284 240.308 76.8383 242.059 75.9452C243.811 75.0521 245.314 73.7394 246.435 72.1241C253.178 62.728 262.062 55.0734 272.352 49.7941C282.642 44.5149 294.042 41.7629 305.607 41.7661C317.168 41.7664 328.563 44.5201 338.849 49.7992C349.135 55.0783 358.016 62.731 364.756 72.1241C365.904 73.7192 367.415 75.0177 369.165 75.9117C370.914 76.8057 372.852 77.2695 374.817 77.2647H376.692C395.667 77.7593 413.698 85.6448 426.944 99.2406C440.19 112.836 447.602 131.068 447.601 150.049V150.269C447.595 164.144 451.628 177.72 459.206 189.342L459.25 189.43C466.173 199.929 470.259 212.041 471.109 224.587C471.96 237.134 469.546 249.687 464.104 261.023C463.343 262.587 462.948 264.303 462.948 266.042C462.948 267.782 463.343 269.498 464.104 271.062C469.398 281.882 471.847 293.873 471.22 305.903C470.593 317.932 466.911 329.604 460.521 339.816C454.132 350.027 445.245 358.442 434.7 364.266C424.156 370.09 412.301 373.13 400.255 373.101H210.937C198.889 373.134 187.031 370.096 176.484 364.274C165.936 358.452 157.046 350.037 150.654 339.825C144.262 329.613 140.578 317.94 139.95 305.908C139.322 293.877 141.771 281.884 147.066 271.062C147.826 269.498 148.222 267.782 148.222 266.042C148.222 264.303 147.826 262.587 147.066 261.023ZM417.552 202.05H417.839L391.386 254.029C388.672 315.849 364.536 254.029 305.607 254.029C246.656 254.029 220.953 322.864 218.239 261.023L193.176 190.489C194.368 163.022 214.268 161.08 218.239 161.08H289.281C303.129 161.114 316.776 157.77 329.04 151.338C341.304 144.906 351.814 135.58 359.66 124.17C360.26 123.316 361.078 122.639 362.03 122.209C362.981 121.78 364.03 121.614 365.067 121.729C366.104 121.844 367.092 122.236 367.926 122.863C368.76 123.49 369.41 124.33 369.809 125.295L371.64 129.575C374.153 135.764 377.863 141.395 382.558 146.146C387.253 150.898 392.839 154.676 398.997 157.263L400.145 157.705C405.351 160.418 417.574 168.515 418.015 189.452L417.795 196.204L417.552 202.05Z" fill="url(#paint8_radial_11_405)"/>
<path fill-rule="evenodd" clip-rule="evenodd" d="M147.066 261.023C142.321 251.209 139.876 240.441 139.917 229.54C139.917 219.215 142.057 209.551 145.852 200.726H145.742C147.428 196.762 149.497 192.971 151.919 189.408L151.986 189.342C159.56 177.726 163.592 164.159 163.59 150.292V150.049C163.59 130.739 171.261 112.221 184.915 98.5671C198.569 84.9132 217.087 77.2426 236.397 77.2426C238.362 77.284 240.308 76.8383 242.059 75.9452C243.811 75.0521 245.314 73.7394 246.435 72.1241C253.178 62.728 262.062 55.0734 272.352 49.7941C282.642 44.5149 294.042 41.7629 305.607 41.7661C317.168 41.7664 328.563 44.5201 338.849 49.7992C349.135 55.0783 358.016 62.731 364.756 72.1241C365.904 73.7192 367.415 75.0177 369.165 75.9117C370.914 76.8057 372.852 77.2695 374.817 77.2647H376.692C395.667 77.7593 413.698 85.6448 426.944 99.2406C440.19 112.836 447.602 131.068 447.601 150.049V150.269C447.595 164.144 451.628 177.72 459.206 189.342L459.25 189.43C466.173 199.929 470.259 212.041 471.109 224.587C471.96 237.134 469.546 249.687 464.104 261.023C463.343 262.587 462.948 264.303 462.948 266.042C462.948 267.782 463.343 269.498 464.104 271.062C469.398 281.882 471.847 293.873 471.22 305.903C470.593 317.932 466.911 329.604 460.521 339.816C454.132 350.027 445.245 358.442 434.7 364.266C424.156 370.09 412.301 373.13 400.255 373.101H210.937C198.889 373.134 187.031 370.096 176.484 364.274C165.936 358.452 157.046 350.037 150.654 339.825C144.262 329.613 140.578 317.94 139.95 305.908C139.322 293.877 141.771 281.884 147.066 271.062C147.826 269.498 148.222 267.782 148.222 266.042C148.222 264.303 147.826 262.587 147.066 261.023ZM417.552 202.05H417.839L391.386 254.029C388.672 315.849 364.536 254.029 305.607 254.029C246.656 254.029 220.953 322.864 218.239 261.023L193.176 190.489C194.368 163.022 214.268 161.08 218.239 161.08H289.281C303.129 161.114 316.776 157.77 329.04 151.338C341.304 144.906 351.814 135.58 359.66 124.17C360.26 123.316 361.078 122.639 362.03 122.209C362.981 121.78 364.03 121.614 365.067 121.729C366.104 121.844 367.092 122.236 367.926 122.863C368.76 123.49 369.41 124.33 369.809 125.295L371.64 129.575C374.153 135.764 377.863 141.395 382.558 146.146C387.253 150.898 392.839 154.676 398.997 157.263L400.145 157.705C405.351 160.418 417.574 168.515 418.015 189.452L417.795 196.204L417.552 202.05Z" fill="url(#paint9_radial_11_405)"/>
<path fill-rule="evenodd" clip-rule="evenodd" d="M147.066 261.023C142.321 251.209 139.876 240.441 139.917 229.54C139.917 219.215 142.057 209.551 145.852 200.726H145.742C147.428 196.762 149.497 192.971 151.919 189.408L151.986 189.342C159.56 177.726 163.592 164.159 163.59 150.292V150.049C163.59 130.739 171.261 112.221 184.915 98.5671C198.569 84.9132 217.087 77.2426 236.397 77.2426C238.362 77.284 240.308 76.8383 242.059 75.9452C243.811 75.0521 245.314 73.7394 246.435 72.1241C253.178 62.728 262.062 55.0734 272.352 49.7941C282.642 44.5149 294.042 41.7629 305.607 41.7661C317.168 41.7664 328.563 44.5201 338.849 49.7992C349.135 55.0783 358.016 62.731 364.756 72.1241C365.904 73.7192 367.415 75.0177 369.165 75.9117C370.914 76.8057 372.852 77.2695 374.817 77.2647H376.692C395.667 77.7593 413.698 85.6448 426.944 99.2406C440.19 112.836 447.602 131.068 447.601 150.049V150.269C447.595 164.144 451.628 177.72 459.206 189.342L459.25 189.43C466.173 199.929 470.259 212.041 471.109 224.587C471.96 237.134 469.546 249.687 464.104 261.023C463.343 262.587 462.948 264.303 462.948 266.042C462.948 267.782 463.343 269.498 464.104 271.062C469.398 281.882 471.847 293.873 471.22 305.903C470.593 317.932 466.911 329.604 460.521 339.816C454.132 350.027 445.245 358.442 434.7 364.266C424.156 370.09 412.301 373.13 400.255 373.101H210.937C198.889 373.134 187.031 370.096 176.484 364.274C165.936 358.452 157.046 350.037 150.654 339.825C144.262 329.613 140.578 317.94 139.95 305.908C139.322 293.877 141.771 281.884 147.066 271.062C147.826 269.498 148.222 267.782 148.222 266.042C148.222 264.303 147.826 262.587 147.066 261.023ZM417.552 202.05H417.839L391.386 254.029C388.672 315.849 364.536 254.029 305.607 254.029C246.656 254.029 220.953 322.864 218.239 261.023L193.176 190.489C194.368 163.022 214.268 161.08 218.239 161.08H289.281C303.129 161.114 316.776 157.77 329.04 151.338C341.304 144.906 351.814 135.58 359.66 124.17C360.26 123.316 361.078 122.639 362.03 122.209C362.981 121.78 364.03 121.614 365.067 121.729C366.104 121.844 367.092 122.236 367.926 122.863C368.76 123.49 369.41 124.33 369.809 125.295L371.64 129.575C374.153 135.764 377.863 141.395 382.558 146.146C387.253 150.898 392.839 154.676 398.997 157.263L400.145 157.705C405.351 160.418 417.574 168.515 418.015 189.452L417.795 196.204L417.552 202.05Z" fill="url(#paint10_radial_11_405)"/>
</g>
<path d="M548.758 579.121C548.758 448.599 441.667 342.809 309.556 342.809C177.446 342.809 70.3548 448.599 70.3548 579.099V589.336H548.758V579.121Z" fill="url(#paint11_radial_11_405)"/>
<path d="M548.758 579.121C548.758 448.599 441.667 342.809 309.556 342.809C177.446 342.809 70.3548 448.599 70.3548 579.099V589.336H548.758V579.121Z" fill="url(#paint12_radial_11_405)"/>
<path d="M548.758 579.121C548.758 448.599 441.667 342.809 309.556 342.809C177.446 342.809 70.3548 448.599 70.3548 579.099V589.336H548.758V579.121Z" fill="url(#paint13_radial_11_405)"/>
<path d="M548.758 579.121C548.758 448.599 441.667 342.809 309.556 342.809C177.446 342.809 70.3548 448.599 70.3548 579.099V589.336H548.758V579.121Z" fill="url(#paint14_radial_11_405)"/>
<path d="M548.758 579.121C548.758 448.599 441.667 342.809 309.556 342.809C177.446 342.809 70.3548 448.599 70.3548 579.099V589.336H548.758V579.121Z" fill="url(#paint15_radial_11_405)"/>
<path d="M152.185 589.331H70.3554V579.116C70.3554 508.141 102.037 444.469 152.185 401.138V589.331Z" fill="url(#paint16_radial_11_405)"/>
<path d="M152.185 589.331H70.3554V579.116C70.3554 508.141 102.037 444.469 152.185 401.138V589.331Z" fill="url(#paint17_radial_11_405)"/>
<path d="M466.951 401.165C517.099 444.474 548.737 508.146 548.737 579.121V589.336H466.929L466.951 401.165Z" fill="#955ECE"/>
<path d="M466.951 401.165C517.099 444.474 548.737 508.146 548.737 579.121V589.336H466.929L466.951 401.165Z" fill="url(#paint18_radial_11_405)"/>
<path d="M466.951 401.165C517.099 444.474 548.737 508.146 548.737 579.121V589.336H466.929L466.951 401.165Z" fill="url(#paint19_radial_11_405)"/>
<path d="M349.533 330.652H261.636V361.165C261.636 385.434 281.316 401.164 305.585 401.164C329.853 401.164 349.533 385.434 349.533 361.165V330.652Z" fill="#F0ABA4"/>
<path d="M349.533 330.652H261.636V361.165C261.636 385.434 281.316 401.164 305.585 401.164C329.853 401.164 349.533 385.434 349.533 361.165V330.652Z" fill="url(#paint20_radial_11_405)"/>
<path d="M349.533 330.652H261.636V361.165C261.636 385.434 281.316 401.164 305.585 401.164C329.853 401.164 349.533 385.434 349.533 361.165V330.652Z" fill="url(#paint21_radial_11_405)"/>
<path d="M297.753 331.756C292.237 331.977 286.501 332.418 280.765 332.859C286.501 332.418 292.016 331.977 297.753 331.756Z" fill="url(#paint22_linear_11_405)"/>
<path d="M305.033 331.756H305.916C303.71 331.756 301.724 331.756 299.518 331.977C301.283 331.756 303.268 331.756 305.033 331.756Z" fill="url(#paint23_linear_11_405)"/>
<g filter="url(#filter1_i_11_405)">
<path d="M408.971 265.413C404.204 265.581 399.452 264.787 394.998 263.079C390.544 261.371 386.48 258.783 383.049 255.47C379.617 252.157 376.887 248.187 375.023 243.796C373.159 239.406 372.198 234.684 372.198 229.914C372.198 225.144 373.159 220.423 375.023 216.033C376.887 211.642 379.617 207.672 383.049 204.359C386.48 201.046 390.544 198.458 394.998 196.75C399.452 195.042 404.204 194.248 408.971 194.416C418.169 194.74 426.882 198.622 433.274 205.244C439.667 211.866 443.24 220.71 443.24 229.914C443.24 239.118 439.667 247.963 433.274 254.585C426.882 261.207 418.169 265.089 408.971 265.413Z" fill="url(#paint24_linear_11_405)"/>
</g>
<g filter="url(#filter2_i_11_405)">
<path d="M199.09 265.413C194.323 265.581 189.571 264.787 185.117 263.079C180.664 261.371 176.6 258.783 173.168 255.47C169.736 252.157 167.007 248.187 165.143 243.796C163.278 239.406 162.318 234.684 162.318 229.914C162.318 225.144 163.278 220.423 165.143 216.033C167.007 211.642 169.736 207.672 173.168 204.359C176.6 201.046 180.664 198.458 185.117 196.75C189.571 195.042 194.323 194.248 199.09 194.416C208.288 194.74 217.001 198.622 223.394 205.244C229.786 211.866 233.359 220.71 233.359 229.914C233.359 239.118 229.786 247.963 223.394 254.585C217.001 261.207 208.288 265.089 199.09 265.413Z" fill="url(#paint25_radial_11_405)"/>
<path d="M199.09 265.413C194.323 265.581 189.571 264.787 185.117 263.079C180.664 261.371 176.6 258.783 173.168 255.47C169.736 252.157 167.007 248.187 165.143 243.796C163.278 239.406 162.318 234.684 162.318 229.914C162.318 225.144 163.278 220.423 165.143 216.033C167.007 211.642 169.736 207.672 173.168 204.359C176.6 201.046 180.664 198.458 185.117 196.75C189.571 195.042 194.323 194.248 199.09 194.416C208.288 194.74 217.001 198.622 223.394 205.244C229.786 211.866 233.359 220.71 233.359 229.914C233.359 239.118 229.786 247.963 223.394 254.585C217.001 261.207 208.288 265.089 199.09 265.413Z" fill="url(#paint26_radial_11_405)"/>
</g>
<g filter="url(#filter3_f_11_405)">
<path d="M199.09 253.63C192.8 253.63 186.767 251.131 182.319 246.683C177.871 242.235 175.373 236.203 175.373 229.912C175.373 223.622 177.871 217.59 182.319 213.142C186.767 208.694 192.8 206.195 199.09 206.195C205.38 206.195 211.413 208.694 215.86 213.142C220.308 217.59 222.807 223.622 222.807 229.912C222.807 236.203 220.308 242.235 215.86 246.683C211.413 251.131 205.38 253.63 199.09 253.63Z" fill="#F6BCA5"/>
<path d="M199.09 253.63C192.8 253.63 186.767 251.131 182.319 246.683C177.871 242.235 175.373 236.203 175.373 229.912C175.373 223.622 177.871 217.59 182.319 213.142C186.767 208.694 192.8 206.195 199.09 206.195C205.38 206.195 211.413 208.694 215.86 213.142C220.308 217.59 222.807 223.622 222.807 229.912C222.807 236.203 220.308 242.235 215.86 246.683C211.413 251.131 205.38 253.63 199.09 253.63Z" fill="url(#paint27_radial_11_405)"/>
</g>
<g filter="url(#filter4_f_11_405)">
<path d="M408.55 253.63C402.26 253.63 396.228 251.131 391.78 246.683C387.332 242.235 384.833 236.203 384.833 229.912C384.833 223.622 387.332 217.59 391.78 213.142C396.228 208.694 402.26 206.195 408.55 206.195C414.841 206.195 420.873 208.694 425.321 213.142C429.769 217.59 432.268 223.622 432.268 229.912C432.268 236.203 429.769 242.235 425.321 246.683C420.873 251.131 414.841 253.63 408.55 253.63Z" fill="#C58C80"/>
<path d="M408.55 253.63C402.26 253.63 396.228 251.131 391.78 246.683C387.332 242.235 384.833 236.203 384.833 229.912C384.833 223.622 387.332 217.59 391.78 213.142C396.228 208.694 402.26 206.195 408.55 206.195C414.841 206.195 420.873 208.694 425.321 213.142C429.769 217.59 432.268 223.622 432.268 229.912C432.268 236.203 429.769 242.235 425.321 246.683C420.873 251.131 414.841 253.63 408.55 253.63Z" fill="url(#paint28_radial_11_405)"/>
</g>
<g filter="url(#filter5_i_11_405)">
<path d="M417.839 202.049H417.552L417.773 196.202L417.994 189.451C417.552 168.514 405.33 160.417 400.123 157.703C399.77 157.585 399.402 157.438 399.02 157.262L397.873 156.82C385.936 151.463 376.53 141.701 371.618 129.573L369.809 125.293C369.413 124.324 368.762 123.479 367.926 122.848C367.09 122.217 366.099 121.823 365.058 121.708C364.017 121.593 362.964 121.76 362.01 122.193C361.056 122.626 360.237 123.308 359.638 124.168C351.792 135.579 341.282 144.904 329.018 151.336C316.754 157.768 303.107 161.112 289.259 161.078H218.218C214.246 161.078 194.368 163.02 193.177 190.466L195.802 258.286C198.516 320.105 246.789 361.627 305.74 361.627C364.691 361.627 412.963 320.105 415.677 258.286L417.839 202.049Z" fill="url(#paint29_radial_11_405)"/>
<path d="M417.839 202.049H417.552L417.773 196.202L417.994 189.451C417.552 168.514 405.33 160.417 400.123 157.703C399.77 157.585 399.402 157.438 399.02 157.262L397.873 156.82C385.936 151.463 376.53 141.701 371.618 129.573L369.809 125.293C369.413 124.324 368.762 123.479 367.926 122.848C367.09 122.217 366.099 121.823 365.058 121.708C364.017 121.593 362.964 121.76 362.01 122.193C361.056 122.626 360.237 123.308 359.638 124.168C351.792 135.579 341.282 144.904 329.018 151.336C316.754 157.768 303.107 161.112 289.259 161.078H218.218C214.246 161.078 194.368 163.02 193.177 190.466L195.802 258.286C198.516 320.105 246.789 361.627 305.74 361.627C364.691 361.627 412.963 320.105 415.677 258.286L417.839 202.049Z" fill="url(#paint30_radial_11_405)"/>
<path d="M417.839 202.049H417.552L417.773 196.202L417.994 189.451C417.552 168.514 405.33 160.417 400.123 157.703C399.77 157.585 399.402 157.438 399.02 157.262L397.873 156.82C385.936 151.463 376.53 141.701 371.618 129.573L369.809 125.293C369.413 124.324 368.762 123.479 367.926 122.848C367.09 122.217 366.099 121.823 365.058 121.708C364.017 121.593 362.964 121.76 362.01 122.193C361.056 122.626 360.237 123.308 359.638 124.168C351.792 135.579 341.282 144.904 329.018 151.336C316.754 157.768 303.107 161.112 289.259 161.078H218.218C214.246 161.078 194.368 163.02 193.177 190.466L195.802 258.286C198.516 320.105 246.789 361.627 305.74 361.627C364.691 361.627 412.963 320.105 415.677 258.286L417.839 202.049Z" fill="url(#paint31_radial_11_405)"/>
<path d="M417.839 202.049H417.552L417.773 196.202L417.994 189.451C417.552 168.514 405.33 160.417 400.123 157.703C399.77 157.585 399.402 157.438 399.02 157.262L397.873 156.82C385.936 151.463 376.53 141.701 371.618 129.573L369.809 125.293C369.413 124.324 368.762 123.479 367.926 122.848C367.09 122.217 366.099 121.823 365.058 121.708C364.017 121.593 362.964 121.76 362.01 122.193C361.056 122.626 360.237 123.308 359.638 124.168C351.792 135.579 341.282 144.904 329.018 151.336C316.754 157.768 303.107 161.112 289.259 161.078H218.218C214.246 161.078 194.368 163.02 193.177 190.466L195.802 258.286C198.516 320.105 246.789 361.627 305.74 361.627C364.691 361.627 412.963 320.105 415.677 258.286L417.839 202.049Z" fill="url(#paint32_radial_11_405)"/>
<path d="M417.839 202.049H417.552L417.773 196.202L417.994 189.451C417.552 168.514 405.33 160.417 400.123 157.703C399.77 157.585 399.402 157.438 399.02 157.262L397.873 156.82C385.936 151.463 376.53 141.701 371.618 129.573L369.809 125.293C369.413 124.324 368.762 123.479 367.926 122.848C367.09 122.217 366.099 121.823 365.058 121.708C364.017 121.593 362.964 121.76 362.01 122.193C361.056 122.626 360.237 123.308 359.638 124.168C351.792 135.579 341.282 144.904 329.018 151.336C316.754 157.768 303.107 161.112 289.259 161.078H218.218C214.246 161.078 194.368 163.02 193.177 190.466L195.802 258.286C198.516 320.105 246.789 361.627 305.74 361.627C364.691 361.627 412.963 320.105 415.677 258.286L417.839 202.049Z" fill="url(#paint33_radial_11_405)"/>
<path d="M417.839 202.049H417.552L417.773 196.202L417.994 189.451C417.552 168.514 405.33 160.417 400.123 157.703C399.77 157.585 399.402 157.438 399.02 157.262L397.873 156.82C385.936 151.463 376.53 141.701 371.618 129.573L369.809 125.293C369.413 124.324 368.762 123.479 367.926 122.848C367.09 122.217 366.099 121.823 365.058 121.708C364.017 121.593 362.964 121.76 362.01 122.193C361.056 122.626 360.237 123.308 359.638 124.168C351.792 135.579 341.282 144.904 329.018 151.336C316.754 157.768 303.107 161.112 289.259 161.078H218.218C214.246 161.078 194.368 163.02 193.177 190.466L195.802 258.286C198.516 320.105 246.789 361.627 305.74 361.627C364.691 361.627 412.963 320.105 415.677 258.286L417.839 202.049Z" fill="url(#paint34_radial_11_405)"/>
<path d="M417.839 202.049H417.552L417.773 196.202L417.994 189.451C417.552 168.514 405.33 160.417 400.123 157.703C399.77 157.585 399.402 157.438 399.02 157.262L397.873 156.82C385.936 151.463 376.53 141.701 371.618 129.573L369.809 125.293C369.413 124.324 368.762 123.479 367.926 122.848C367.09 122.217 366.099 121.823 365.058 121.708C364.017 121.593 362.964 121.76 362.01 122.193C361.056 122.626 360.237 123.308 359.638 124.168C351.792 135.579 341.282 144.904 329.018 151.336C316.754 157.768 303.107 161.112 289.259 161.078H218.218C214.246 161.078 194.368 163.02 193.177 190.466L195.802 258.286C198.516 320.105 246.789 361.627 305.74 361.627C364.691 361.627 412.963 320.105 415.677 258.286L417.839 202.049Z" fill="url(#paint35_radial_11_405)"/>
</g>
<path d="M417.839 202.049H417.552L417.773 196.202L417.994 189.451C417.552 168.514 405.33 160.417 400.123 157.703C399.77 157.585 399.402 157.438 399.02 157.262L397.873 156.82C385.936 151.463 376.53 141.701 371.618 129.573L369.809 125.293C369.413 124.324 368.762 123.479 367.926 122.848C367.09 122.217 366.099 121.823 365.058 121.708C364.017 121.593 362.964 121.76 362.01 122.193C361.056 122.626 360.237 123.308 359.638 124.168C351.792 135.579 341.282 144.904 329.018 151.336C316.754 157.768 303.107 161.112 289.259 161.078H218.218C214.246 161.078 194.368 163.02 193.177 190.466L195.802 258.286C198.516 320.105 246.789 361.627 305.74 361.627C364.691 361.627 412.963 320.105 415.677 258.286L417.839 202.049Z" fill="url(#paint36_radial_11_405)"/>
<path d="M417.839 202.049H417.552L417.773 196.202L417.994 189.451C417.552 168.514 405.33 160.417 400.123 157.703C399.77 157.585 399.402 157.438 399.02 157.262L397.873 156.82C385.936 151.463 376.53 141.701 371.618 129.573L369.809 125.293C369.413 124.324 368.762 123.479 367.926 122.848C367.09 122.217 366.099 121.823 365.058 121.708C364.017 121.593 362.964 121.76 362.01 122.193C361.056 122.626 360.237 123.308 359.638 124.168C351.792 135.579 341.282 144.904 329.018 151.336C316.754 157.768 303.107 161.112 289.259 161.078H218.218C214.246 161.078 194.368 163.02 193.177 190.466L195.802 258.286C198.516 320.105 246.789 361.627 305.74 361.627C364.691 361.627 412.963 320.105 415.677 258.286L417.839 202.049Z" fill="url(#paint37_radial_11_405)"/>
<g filter="url(#filter6_f_11_405)">
<path d="M314.256 224.994L329.324 262.5C329.88 264.291 330.005 266.187 329.69 268.035C329.374 269.883 328.627 271.63 327.509 273.135C326.391 274.64 324.934 275.86 323.256 276.695C321.578 277.531 319.726 277.959 317.852 277.944H300.489C298.614 277.959 296.762 277.531 295.084 276.695C293.406 275.86 291.949 274.64 290.831 273.135C289.713 271.63 288.966 269.883 288.651 268.035C288.335 266.187 288.461 264.291 289.016 262.5L300.731 224.994C303.246 216.698 311.63 216.698 314.256 224.994Z" fill="#D19590"/>
</g>
<g filter="url(#filter7_f_11_405)">
<path d="M314.035 221.951L325.751 259.457C326.306 261.248 326.431 263.144 326.116 264.992C325.8 266.84 325.053 268.587 323.936 270.092C322.818 271.597 321.36 272.817 319.682 273.652C318.004 274.488 316.153 274.916 314.278 274.901H296.915C295.04 274.916 293.189 274.488 291.511 273.652C289.832 272.817 288.375 271.597 287.257 270.092C286.139 268.587 285.392 266.84 285.077 264.992C284.762 263.144 284.887 261.248 285.442 259.457L297.158 221.951C299.673 213.633 311.388 213.633 314.035 221.951Z" fill="#F1C4B2"/>
<path d="M314.035 221.951L325.751 259.457C326.306 261.248 326.431 263.144 326.116 264.992C325.8 266.84 325.053 268.587 323.936 270.092C322.818 271.597 321.36 272.817 319.682 273.652C318.004 274.488 316.153 274.916 314.278 274.901H296.915C295.04 274.916 293.189 274.488 291.511 273.652C289.832 272.817 288.375 271.597 287.257 270.092C286.139 268.587 285.392 266.84 285.077 264.992C284.762 263.144 284.887 261.248 285.442 259.457L297.158 221.951C299.673 213.633 311.388 213.633 314.035 221.951Z" fill="url(#paint38_radial_11_405)"/>
<path d="M314.035 221.951L325.751 259.457C326.306 261.248 326.431 263.144 326.116 264.992C325.8 266.84 325.053 268.587 323.936 270.092C322.818 271.597 321.36 272.817 319.682 273.652C318.004 274.488 316.153 274.916 314.278 274.901H296.915C295.04 274.916 293.189 274.488 291.511 273.652C289.832 272.817 288.375 271.597 287.257 270.092C286.139 268.587 285.392 266.84 285.077 264.992C284.762 263.144 284.887 261.248 285.442 259.457L297.158 221.951C299.673 213.633 311.388 213.633 314.035 221.951Z" fill="url(#paint39_linear_11_405)"/>
<path d="M314.035 221.951L325.751 259.457C326.306 261.248 326.431 263.144 326.116 264.992C325.8 266.84 325.053 268.587 323.936 270.092C322.818 271.597 321.36 272.817 319.682 273.652C318.004 274.488 316.153 274.916 314.278 274.901H296.915C295.04 274.916 293.189 274.488 291.511 273.652C289.832 272.817 288.375 271.597 287.257 270.092C286.139 268.587 285.392 266.84 285.077 264.992C284.762 263.144 284.887 261.248 285.442 259.457L297.158 221.951C299.673 213.633 311.388 213.633 314.035 221.951Z" fill="url(#paint40_linear_11_405)"/>
<path d="M314.035 221.951L325.751 259.457C326.306 261.248 326.431 263.144 326.116 264.992C325.8 266.84 325.053 268.587 323.936 270.092C322.818 271.597 321.36 272.817 319.682 273.652C318.004 274.488 316.153 274.916 314.278 274.901H296.915C295.04 274.916 293.189 274.488 291.511 273.652C289.832 272.817 288.375 271.597 287.257 270.092C286.139 268.587 285.392 266.84 285.077 264.992C284.762 263.144 284.887 261.248 285.442 259.457L297.158 221.951C299.673 213.633 311.388 213.633 314.035 221.951Z" fill="url(#paint41_radial_11_405)"/>
</g>
<g filter="url(#filter8_f_11_405)">
<path d="M305.607 294.162C317.08 294.162 327.891 291.382 336.936 286.55C340.069 284.94 343.401 288.514 341.437 291.404C337.577 297.406 332.272 302.344 326.008 305.763C319.744 309.182 312.722 310.974 305.585 310.974C298.449 310.974 291.427 309.182 285.163 305.763C278.899 302.344 273.594 297.406 269.734 291.404C267.792 288.381 271.124 284.94 274.235 286.55C283.897 291.634 294.689 294.249 305.607 294.162Z" stroke="url(#paint42_linear_11_405)" stroke-width="4.4125"/>
</g>
<path d="M305.607 294.162C317.08 294.162 327.891 291.382 336.936 286.55C340.069 284.94 343.401 288.514 341.437 291.404C337.577 297.406 332.272 302.344 326.008 305.763C319.744 309.182 312.722 310.974 305.585 310.974C298.449 310.974 291.427 309.182 285.163 305.763C278.899 302.344 273.594 297.406 269.734 291.404C267.792 288.381 271.124 284.94 274.235 286.55C283.897 291.634 294.689 294.249 305.607 294.162Z" fill="#88024E"/>
<g filter="url(#filter9_i_11_405)">
<path d="M280.389 217.362C274.543 207.059 265.63 198.918 246.479 198.918C238.096 198.918 229.999 201.257 222.806 207.081C216.871 211.847 217.666 217.98 222.277 220.275L234.521 227.291C248.906 222.657 264.791 221.996 280.389 217.362Z" fill="#2D2B2E"/>
</g>
<g filter="url(#filter10_i_11_405)">
<path d="M330.78 217.362C336.649 207.059 345.562 198.918 364.712 198.918C373.096 198.918 381.193 201.257 388.363 207.081C394.32 211.847 393.504 217.98 388.915 220.275L376.648 227.291C362.263 222.657 346.356 221.996 330.78 217.362Z" fill="#272528"/>
</g>
<g filter="url(#filter11_i_11_405)">
<path d="M380.554 190.689L380.642 190.755C381.988 191.562 383.6 191.802 385.122 191.421C386.645 191.041 387.954 190.071 388.761 188.725C389.569 187.379 389.809 185.768 389.428 184.245C389.047 182.723 388.077 181.414 386.732 180.606L386.688 180.584L386.643 180.54L386.423 180.408L385.717 180.01L383.158 178.731C380.234 177.319 377.211 176.125 374.112 175.157C366.611 172.752 356.109 170.744 344.791 172.73C343.243 173.002 341.867 173.878 340.965 175.164C340.063 176.451 339.709 178.044 339.981 179.591C340.253 181.139 341.129 182.515 342.416 183.417C343.703 184.319 345.295 184.673 346.843 184.401C354.776 183.198 362.881 183.894 370.494 186.431C373.959 187.57 377.324 188.994 380.554 190.689Z" fill="#1E1E1E"/>
</g>
<g filter="url(#filter12_i_11_405)">
<path fill-rule="evenodd" clip-rule="evenodd" d="M223.27 180.605C221.951 181.422 221.005 182.725 220.638 184.233C220.271 185.741 220.512 187.333 221.309 188.665C222.105 189.997 223.393 190.963 224.895 191.354C226.397 191.744 227.993 191.529 229.337 190.753L229.448 190.687C230.251 190.208 231.083 189.781 231.941 189.407C234.4 188.26 236.927 187.266 239.508 186.429C247.12 183.892 255.226 183.196 263.159 184.399C264.704 184.671 266.293 184.319 267.578 183.419C268.863 182.519 269.737 181.145 270.01 179.601C270.282 178.056 269.929 176.466 269.029 175.182C268.129 173.897 266.756 173.022 265.211 172.75C253.893 170.765 243.391 172.75 235.89 175.155C231.634 176.524 227.513 178.281 223.579 180.406L223.358 180.538L223.314 180.582L223.27 180.605Z" fill="#1E1E1E"/>
</g>
<path d="M252.834 200.216C238.427 200.216 226.271 210.145 222.94 223.581C222.718 224.475 222.703 225.409 222.897 226.31C223.091 227.211 223.489 228.055 224.059 228.779C224.63 229.503 225.358 230.087 226.189 230.486C227.02 230.885 227.931 231.089 228.852 231.082H278.074C278.82 231.087 279.558 230.928 280.236 230.616C280.913 230.303 281.513 229.845 281.994 229.274C282.474 228.704 282.823 228.034 283.015 227.313C283.207 226.592 283.237 225.837 283.104 225.103C281.716 218.094 277.94 211.783 272.421 207.245C266.902 202.707 259.98 200.223 252.834 200.216Z" fill="white"/>
<path d="M257.401 206.195C254.372 206.199 251.385 206.902 248.671 208.249C245.958 209.595 243.591 211.549 241.756 213.959C239.92 216.368 238.665 219.169 238.088 222.142C237.511 225.116 237.627 228.182 238.427 231.104H276.485C277.27 228.177 277.371 225.11 276.781 222.138C276.192 219.166 274.927 216.37 273.085 213.965C271.242 211.56 268.872 209.61 266.156 208.267C263.441 206.923 260.453 206.222 257.423 206.217" fill="url(#paint43_radial_11_405)"/>
<path d="M268.674 225.899C268.674 219.633 263.666 214.647 257.422 214.647C255.482 214.636 253.572 215.126 251.878 216.071C250.184 217.016 248.762 218.383 247.752 220.039C246.742 221.696 246.177 223.585 246.113 225.524C246.048 227.463 246.486 229.386 247.384 231.105H267.35C268.251 229.52 268.708 227.722 268.674 225.899Z" fill="black"/>
<g filter="url(#filter13_f_11_405)">
<path d="M258.835 210.388C257.445 212.264 260.379 214.536 263.71 217.029C267.042 219.522 269.535 221.287 270.925 219.412C272.337 217.537 270.77 213.985 267.439 211.492C264.085 208.998 260.247 208.491 258.835 210.388Z" fill="#C7A7A3"/>
<path d="M258.835 210.388C257.445 212.264 260.379 214.536 263.71 217.029C267.042 219.522 269.535 221.287 270.925 219.412C272.337 217.537 270.77 213.985 267.439 211.492C264.085 208.998 260.247 208.491 258.835 210.388Z" fill="url(#paint44_radial_11_405)"/>
</g>
<g filter="url(#filter14_f_11_405)">
<path d="M239.862 223.316C240.449 219.456 242.241 215.882 244.98 213.101L250.716 219.388L248.113 224.441L239.862 223.316Z" fill="url(#paint45_linear_11_405)"/>
</g>
<path d="M358.337 200.216C372.766 200.216 384.922 210.145 388.231 223.581C388.458 224.475 388.476 225.41 388.284 226.313C388.092 227.216 387.694 228.063 387.123 228.788C386.552 229.513 385.821 230.097 384.988 230.494C384.155 230.892 383.242 231.093 382.319 231.082H333.119C332.373 231.087 331.635 230.928 330.957 230.616C330.28 230.303 329.68 229.845 329.199 229.274C328.719 228.704 328.37 228.034 328.178 227.313C327.987 226.592 327.956 225.837 328.089 225.103C329.477 218.097 333.249 211.789 338.764 207.252C344.278 202.714 351.195 200.228 358.337 200.216Z" fill="white"/>
<path d="M353.77 206.195C356.801 206.195 359.79 206.895 362.506 208.24C365.222 209.585 367.59 211.539 369.427 213.95C371.263 216.361 372.518 219.163 373.093 222.139C373.669 225.114 373.549 228.182 372.744 231.104H334.708C334.266 229.403 334.029 227.655 334.002 225.897C334.048 220.677 336.149 215.685 339.848 212.001C343.548 208.318 348.55 206.24 353.77 206.217" fill="url(#paint46_radial_11_405)"/>
<path d="M342.495 225.899C342.495 224.419 342.787 222.954 343.354 221.588C343.921 220.221 344.751 218.98 345.798 217.934C346.846 216.889 348.089 216.061 349.456 215.497C350.824 214.933 352.29 214.644 353.769 214.647C355.709 214.636 357.619 215.126 359.313 216.071C361.008 217.016 362.429 218.383 363.439 220.039C364.449 221.696 365.014 223.585 365.078 225.524C365.143 227.463 364.705 229.386 363.807 231.105H343.841C342.977 229.505 342.523 227.717 342.517 225.899" fill="black"/>
<g filter="url(#filter15_f_11_405)">
<path d="M335.788 223.58C335.788 217.226 340.973 212.99 342.363 211.711L348.717 217.844L344.812 225.831L335.788 223.58Z" fill="url(#paint47_linear_11_405)"/>
</g>
<g filter="url(#filter16_f_11_405)">
<path d="M357.692 218.466C353.492 216.242 350.999 212.719 352.123 210.598C353.247 208.477 357.562 208.561 361.761 210.785C365.96 213.01 368.453 216.533 367.33 218.654C366.206 220.775 361.891 220.691 357.692 218.466Z" fill="#C7A7A3" fill-opacity="0.9"/>
<path d="M357.692 218.466C353.492 216.242 350.999 212.719 352.123 210.598C353.247 208.477 357.562 208.561 361.761 210.785C365.96 213.01 368.453 216.533 367.33 218.654C366.206 220.775 361.891 220.691 357.692 218.466Z" fill="url(#paint48_radial_11_405)"/>
</g>
<g filter="url(#filter17_f_11_405)">
<path d="M262.806 177.56C255.68 175.839 237.986 176.699 226.16 185.171" stroke="#323233" stroke-width="4.4125" stroke-linecap="round"/>
</g>
<g filter="url(#filter18_f_11_405)">
<path d="M346.423 177.56C353.55 175.839 371.244 176.699 383.091 185.171" stroke="#323233" stroke-width="4.4125" stroke-linecap="round"/>
</g>
<g filter="url(#filter19_if_11_405)">
<path d="M417.442 97.8036C404.955 84.5661 381.326 84.566 370.427 86.5296L361.69 114.99C367.272 114.13 372.236 116.093 376.428 120.175C386.312 147.974 420.332 163.329 436.085 167.521C439.35 134.604 433.658 115.012 417.442 97.8036Z" fill="#232121"/>
<path d="M417.442 97.8036C404.955 84.5661 381.326 84.566 370.427 86.5296L361.69 114.99C367.272 114.13 372.236 116.093 376.428 120.175C386.312 147.974 420.332 163.329 436.085 167.521C439.35 134.604 433.658 115.012 417.442 97.8036Z" fill="url(#paint49_radial_11_405)"/>
</g>
<g filter="url(#filter20_if_11_405)">
<path d="M318.911 58.0234C343.886 52.5077 366.345 77.4384 368.927 86.7046C345.717 164.894 287.009 160.614 229.05 154.172C194.346 150.311 190.596 166.13 187.639 173.785C187.639 87.0135 261.416 70.7314 318.271 58.1778L318.911 58.0234Z" fill="#2A2A2A"/>
<path d="M318.911 58.0234C343.886 52.5077 366.345 77.4384 368.927 86.7046C345.717 164.894 287.009 160.614 229.05 154.172C194.346 150.311 190.596 166.13 187.639 173.785C187.639 87.0135 261.416 70.7314 318.271 58.1778L318.911 58.0234Z" fill="url(#paint50_radial_11_405)"/>
<path d="M318.911 58.0234C343.886 52.5077 366.345 77.4384 368.927 86.7046C345.717 164.894 287.009 160.614 229.05 154.172C194.346 150.311 190.596 166.13 187.639 173.785C187.639 87.0135 261.416 70.7314 318.271 58.1778L318.911 58.0234Z" fill="url(#paint51_radial_11_405)"/>
</g>
<g filter="url(#filter21_f_11_405)">
<path d="M369.368 85.5784C368.861 90.9396 364.206 111.083 357.366 123.305" stroke="url(#paint52_linear_11_405)" stroke-width="4.4125" stroke-linecap="round"/>
</g>
<g filter="url(#filter22_f_11_405)">
<path d="M252.503 137.669L283.942 143.45C286.013 143.825 288.14 143.765 290.188 143.273C292.235 142.782 294.158 141.87 295.833 140.595C297.509 139.32 298.901 137.711 299.922 135.87C300.942 134.028 301.568 131.994 301.76 129.898C301.952 127.801 301.706 125.687 301.037 123.691C300.368 121.695 299.291 119.859 297.875 118.302C296.458 116.744 294.733 115.498 292.81 114.643C290.886 113.788 288.805 113.342 286.699 113.334H235.073C204.517 113.334 194.412 144.112 193.154 154.635C201.071 147.427 210.547 142.145 220.842 139.202C231.136 136.259 241.972 135.735 252.503 137.669Z" fill="#4B4648"/>
</g>
<path d="M171.467 88.3815C199.31 98.5743 217.821 97.4933 229.889 92.1542L255.746 155.076C227.285 156.268 171.908 147.752 133.012 102.501C114.414 80.8361 111.038 60.3621 118.539 45.4478C119.885 42.7562 122.577 41.6531 124.496 42.1605C126.393 42.69 128.026 44.5653 128.622 46.7275C132.196 59.2369 140.491 77.0413 171.467 88.3815Z" fill="url(#paint53_radial_11_405)"/>
<path d="M91.5133 0L122.136 106.562L95.9479 114.195L72.319 31.9024C70.47 25.4515 71.252 18.5309 74.4938 12.6553C77.7355 6.77963 83.1729 2.42754 89.616 0.551559L91.5133 0Z" fill="url(#paint54_linear_11_405)"/>
<path d="M91.5133 0L122.136 106.562L95.9479 114.195L72.319 31.9024C70.47 25.4515 71.252 18.5309 74.4938 12.6553C77.7355 6.77963 83.1729 2.42754 89.616 0.551559L91.5133 0Z" fill="url(#paint55_linear_11_405)"/>
<path d="M194.059 56.8319L74.4804 90.742L81.9376 116.974L177.071 89.9919C180.277 89.0837 183.273 87.5529 185.887 85.487C188.501 83.421 190.683 80.8603 192.308 77.9512C193.932 75.042 194.968 71.8413 195.356 68.5318C195.743 65.2224 195.475 61.869 194.567 58.6631L194.059 56.8319Z" fill="url(#paint56_linear_11_405)"/>
<path d="M194.059 56.8319L74.4804 90.742L81.9376 116.974L177.071 89.9919C180.277 89.0837 183.273 87.5529 185.887 85.487C188.501 83.421 190.683 80.8603 192.308 77.9512C193.932 75.042 194.968 71.8413 195.356 68.5318C195.743 65.2224 195.475 61.869 194.567 58.6631L194.059 56.8319Z" fill="url(#paint57_linear_11_405)"/>
<g filter="url(#filter23_i_11_405)">
<path d="M104.816 103.009C101.002 103.009 97.9104 99.9174 97.9104 96.1036C97.9104 92.2897 101.002 89.198 104.816 89.198C108.63 89.198 111.722 92.2897 111.722 96.1036C111.722 99.9174 108.63 103.009 104.816 103.009Z" fill="url(#paint58_radial_11_405)"/>
<path d="M104.816 103.009C101.002 103.009 97.9104 99.9174 97.9104 96.1036C97.9104 92.2897 101.002 89.198 104.816 89.198C108.63 89.198 111.722 92.2897 111.722 96.1036C111.722 99.9174 108.63 103.009 104.816 103.009Z" fill="url(#paint59_radial_11_405)"/>
<path d="M104.816 103.009C101.002 103.009 97.9104 99.9174 97.9104 96.1036C97.9104 92.2897 101.002 89.198 104.816 89.198C108.63 89.198 111.722 92.2897 111.722 96.1036C111.722 99.9174 108.63 103.009 104.816 103.009Z" fill="url(#paint60_radial_11_405)"/>
</g>
<g filter="url(#filter24_ii_11_405)">
<path fill-rule="evenodd" clip-rule="evenodd" d="M120.834 105.855C121.395 105.691 121.999 105.757 122.512 106.039C123.025 106.32 123.405 106.794 123.569 107.355L125.864 115.232C126.117 116.093 126.614 116.861 127.296 117.445C127.977 118.029 128.813 118.402 129.703 118.519C138.812 120.018 147.139 124.574 153.313 131.436C159.488 138.298 163.143 147.058 163.675 156.274C164.208 165.49 161.587 174.613 156.244 182.141C150.901 189.669 143.154 195.153 134.278 197.691C125.403 200.23 115.928 199.671 107.412 196.106C98.8968 192.542 91.8486 186.185 87.4277 178.081C83.0069 169.977 81.4769 160.609 83.0895 151.52C84.7021 142.43 89.3613 134.161 96.3001 128.072C96.9957 127.497 97.5083 126.732 97.7748 125.869C98.0413 125.007 98.0502 124.086 97.8004 123.218L95.55 115.519C95.4693 115.239 95.4446 114.946 95.4776 114.657C95.5105 114.368 95.6003 114.088 95.7418 113.834C95.8833 113.58 96.0737 113.356 96.302 113.175C96.5304 112.995 96.7921 112.862 97.0723 112.783L120.834 105.855ZM104.485 158.607C104.485 163.545 106.447 168.281 109.939 171.774C113.431 175.266 118.167 177.227 123.106 177.227C128.045 177.227 132.781 175.266 136.273 171.774C139.765 168.281 141.727 163.545 141.727 158.607C141.727 153.668 139.765 148.932 136.273 145.44C132.781 141.948 128.045 139.986 123.106 139.986C118.167 139.986 113.431 141.948 109.939 145.44C106.447 148.932 104.485 153.668 104.485 158.607Z" fill="url(#paint61_radial_11_405)"/>
</g>
<path fill-rule="evenodd" clip-rule="evenodd" d="M120.834 105.855C121.395 105.691 121.999 105.757 122.512 106.039C123.025 106.32 123.405 106.794 123.569 107.355L125.864 115.232C126.117 116.093 126.614 116.861 127.296 117.445C127.977 118.029 128.813 118.402 129.703 118.519C138.812 120.018 147.139 124.574 153.313 131.436C159.488 138.298 163.143 147.058 163.675 156.274C164.208 165.49 161.587 174.613 156.244 182.141C150.901 189.669 143.154 195.153 134.278 197.691C125.403 200.23 115.928 199.671 107.412 196.106C98.8968 192.542 91.8486 186.185 87.4277 178.081C83.0069 169.977 81.4769 160.609 83.0895 151.52C84.7021 142.43 89.3613 134.161 96.3001 128.072C96.9957 127.497 97.5083 126.732 97.7748 125.869C98.0413 125.007 98.0502 124.086 97.8004 123.218L95.55 115.519C95.4693 115.239 95.4446 114.946 95.4776 114.657C95.5105 114.368 95.6003 114.088 95.7418 113.834C95.8833 113.58 96.0737 113.356 96.302 113.175C96.5304 112.995 96.7921 112.862 97.0723 112.783L120.834 105.855ZM104.485 158.607C104.485 163.545 106.447 168.281 109.939 171.774C113.431 175.266 118.167 177.227 123.106 177.227C128.045 177.227 132.781 175.266 136.273 171.774C139.765 168.281 141.727 163.545 141.727 158.607C141.727 153.668 139.765 148.932 136.273 145.44C132.781 141.948 128.045 139.986 123.106 139.986C118.167 139.986 113.431 141.948 109.939 145.44C106.447 148.932 104.485 153.668 104.485 158.607Z" fill="url(#paint62_linear_11_405)"/>
<g filter="url(#filter25_i_11_405)">
<path fill-rule="evenodd" clip-rule="evenodd" d="M88.9531 88.4926C88.7982 87.9327 88.4287 87.4564 87.9247 87.1672C87.4208 86.8781 86.8231 86.7994 86.2615 86.9482L78.319 89.0442C77.4553 89.2392 76.5547 89.1944 75.7147 88.9144C74.8748 88.6344 74.1274 88.1299 73.5535 87.4557C67.5615 80.4335 59.3574 75.6605 50.2913 73.9223C41.2252 72.1841 31.8375 73.5843 23.6732 77.8924C15.5089 82.2006 9.05469 89.1599 5.37268 97.625C1.69068 106.09 1.00037 115.557 3.41537 124.466C5.83038 133.376 11.2067 141.198 18.6596 146.645C26.1125 152.092 35.1978 154.839 44.4202 154.435C53.6425 154.03 62.4523 150.498 69.3996 144.419C76.3469 138.34 81.0177 130.078 82.6432 120.991C82.7987 120.111 83.1941 119.291 83.7859 118.621C84.3776 117.952 85.1426 117.458 85.9967 117.196L93.7627 115.122C94.3227 114.967 94.799 114.598 95.0881 114.094C95.3773 113.59 95.456 112.992 95.3071 112.43L88.9531 88.4926ZM52.2632 129.749C50.1696 131.121 47.8211 132.056 45.3579 132.499C42.8947 132.943 40.3675 132.885 37.9272 132.329C35.4869 131.774 33.1836 130.732 31.1549 129.266C29.1263 127.801 27.4139 125.941 26.1202 123.799C24.8264 121.656 23.9778 119.275 23.6251 116.797C23.2724 114.32 23.4227 111.796 24.0672 109.378C24.7117 106.959 25.8372 104.696 27.3762 102.722C28.9152 100.749 30.8363 99.1056 33.0247 97.8912C37.2479 95.4459 42.2624 94.7563 46.9889 95.9707C51.7155 97.1851 55.7765 100.207 58.2979 104.385C60.8193 108.563 61.5997 113.564 60.4711 118.312C59.3425 123.06 56.3951 127.175 52.2632 129.772" fill="url(#paint63_radial_11_405)"/>
</g>
<g filter="url(#filter26_f_11_405)">
<path d="M42.6002 150.71C22.2394 150.71 5.73378 134.204 5.73378 113.843C5.73378 93.4824 22.2394 76.9767 42.6002 76.9767C62.961 76.9767 79.4667 93.4824 79.4667 113.843C79.4667 134.204 62.961 150.71 42.6002 150.71Z" stroke="url(#paint64_linear_11_405)" stroke-width="2.20625"/>
</g>
<g filter="url(#filter27_f_11_405)">
<path d="M42.5999 138.486C28.9895 138.486 17.9562 127.452 17.9562 113.842C17.9562 100.231 28.9895 89.198 42.5999 89.198C56.2104 89.198 67.2438 100.231 67.2438 113.842C67.2438 127.452 56.2104 138.486 42.5999 138.486Z" stroke="url(#paint65_linear_11_405)" stroke-width="2.20625"/>
</g>
<g filter="url(#filter28_f_11_405)">
<path d="M123.106 182.896C109.495 182.896 98.4619 171.863 98.4619 158.252C98.4619 144.642 109.495 133.609 123.106 133.609C136.716 133.609 147.75 144.642 147.75 158.252C147.75 171.863 136.716 182.896 123.106 182.896Z" stroke="url(#paint66_linear_11_405)" stroke-width="2.20625"/>
</g>
<g filter="url(#filter29_f_11_405)">
<path d="M123.106 194.702C102.977 194.702 86.6592 178.384 86.6592 158.255C86.6592 138.125 102.977 121.807 123.106 121.807C143.236 121.807 159.554 138.125 159.554 158.255C159.554 178.384 143.236 194.702 123.106 194.702Z" stroke="url(#paint67_linear_11_405)" stroke-width="2.20625"/>
</g>
<defs>
<filter id="filter0_i_11_405" x="139.854" y="25.2192" width="336.978" height="347.882" filterUnits="userSpaceOnUse" color-interpolation-filters="sRGB">
<feFlood flood-opacity="0" result="BackgroundImageFix"/>
<feBlend mode="normal" in="SourceGraphic" in2="BackgroundImageFix" result="shape"/>
<feColorMatrix in="SourceAlpha" type="matrix" values="0 0 0 0 0 0 0 0 0 0 0 0 0 0 0 0 0 0 127 0" result="hardAlpha"/>
<feOffset dx="5.51562" dy="-16.5469"/>
<feGaussianBlur stdDeviation="16.5469"/>
<feComposite in2="hardAlpha" operator="arithmetic" k2="-1" k3="1"/>
<feColorMatrix type="matrix" values="0 0 0 0 0.121569 0 0 0 0 0.0705882 0 0 0 0 0.164706 0 0 0 1 0"/>
<feBlend mode="normal" in2="shape" result="effect1_innerShadow_11_405"/>
</filter>
<filter id="filter1_i_11_405" x="372.198" y="194.394" width="74.3506" height="71.0413" filterUnits="userSpaceOnUse" color-interpolation-filters="sRGB">
<feFlood flood-opacity="0" result="BackgroundImageFix"/>
<feBlend mode="normal" in="SourceGraphic" in2="BackgroundImageFix" result="shape"/>
<feColorMatrix in="SourceAlpha" type="matrix" values="0 0 0 0 0 0 0 0 0 0 0 0 0 0 0 0 0 0 127 0" result="hardAlpha"/>
<feOffset dx="3.30938"/>
<feGaussianBlur stdDeviation="5.51562"/>
<feComposite in2="hardAlpha" operator="arithmetic" k2="-1" k3="1"/>
<feColorMatrix type="matrix" values="0 0 0 0 0.894118 0 0 0 0 0.682353 0 0 0 0 0.6 0 0 0 1 0"/>
<feBlend mode="normal" in2="shape" result="effect1_innerShadow_11_405"/>
</filter>
<filter id="filter2_i_11_405" x="162.318" y="188.878" width="71.0413" height="76.5569" filterUnits="userSpaceOnUse" color-interpolation-filters="sRGB">
<feFlood flood-opacity="0" result="BackgroundImageFix"/>
<feBlend mode="normal" in="SourceGraphic" in2="BackgroundImageFix" result="shape"/>
<feColorMatrix in="SourceAlpha" type="matrix" values="0 0 0 0 0 0 0 0 0 0 0 0 0 0 0 0 0 0 127 0" result="hardAlpha"/>
<feOffset dy="-5.51562"/>
<feGaussianBlur stdDeviation="5.51562"/>
<feComposite in2="hardAlpha" operator="arithmetic" k2="-1" k3="1"/>
<feColorMatrix type="matrix" values="0 0 0 0 0.784314 0 0 0 0 0.572549 0 0 0 0 0.513726 0 0 0 1 0"/>
<feBlend mode="normal" in2="shape" result="effect1_innerShadow_11_405"/>
</filter>
<filter id="filter3_f_11_405" x="164.341" y="195.164" width="69.4969" height="69.4969" filterUnits="userSpaceOnUse" color-interpolation-filters="sRGB">
<feFlood flood-opacity="0" result="BackgroundImageFix"/>
<feBlend mode="normal" in="SourceGraphic" in2="BackgroundImageFix" result="shape"/>
<feGaussianBlur stdDeviation="5.51562" result="effect1_foregroundBlur_11_405"/>
</filter>
<filter id="filter4_f_11_405" x="376.008" y="197.37" width="65.0843" height="65.0844" filterUnits="userSpaceOnUse" color-interpolation-filters="sRGB">
<feFlood flood-opacity="0" result="BackgroundImageFix"/>
<feBlend mode="normal" in="SourceGraphic" in2="BackgroundImageFix" result="shape"/>
<feGaussianBlur stdDeviation="4.4125" result="effect1_foregroundBlur_11_405"/>
</filter>
<filter id="filter5_i_11_405" x="193.177" y="121.672" width="224.817" height="248.779" filterUnits="userSpaceOnUse" color-interpolation-filters="sRGB">
<feFlood flood-opacity="0" result="BackgroundImageFix"/>
<feBlend mode="normal" in="SourceGraphic" in2="BackgroundImageFix" result="shape"/>
<feColorMatrix in="SourceAlpha" type="matrix" values="0 0 0 0 0 0 0 0 0 0 0 0 0 0 0 0 0 0 127 0" result="hardAlpha"/>
<feOffset dy="8.825"/>
<feGaussianBlur stdDeviation="6.61875"/>
<feComposite in2="hardAlpha" operator="arithmetic" k2="-1" k3="1"/>
<feColorMatrix type="matrix" values="0 0 0 0 0.807843 0 0 0 0 0.592157 0 0 0 0 0.52549 0 0 0 1 0"/>
<feBlend mode="normal" in2="shape" result="effect1_innerShadow_11_405"/>
</filter>
<filter id="filter6_f_11_405" x="277.45" y="207.741" width="63.4409" height="81.2345" filterUnits="userSpaceOnUse" color-interpolation-filters="sRGB">
<feFlood flood-opacity="0" result="BackgroundImageFix"/>
<feBlend mode="normal" in="SourceGraphic" in2="BackgroundImageFix" result="shape"/>
<feGaussianBlur stdDeviation="5.51562" result="effect1_foregroundBlur_11_405"/>
</filter>
<filter id="filter7_f_11_405" x="282.701" y="213.506" width="45.7909" height="63.601" filterUnits="userSpaceOnUse" color-interpolation-filters="sRGB">
<feFlood flood-opacity="0" result="BackgroundImageFix"/>
<feBlend mode="normal" in="SourceGraphic" in2="BackgroundImageFix" result="shape"/>
<feGaussianBlur stdDeviation="1.10312" result="effect1_foregroundBlur_11_405"/>
</filter>
<filter id="filter8_f_11_405" x="264.707" y="281.734" width="81.732" height="33.6518" filterUnits="userSpaceOnUse" color-interpolation-filters="sRGB">
<feFlood flood-opacity="0" result="BackgroundImageFix"/>
<feBlend mode="normal" in="SourceGraphic" in2="BackgroundImageFix" result="shape"/>
<feGaussianBlur stdDeviation="1.10312" result="effect1_foregroundBlur_11_405"/>
</filter>
<filter id="filter9_i_11_405" x="214.174" y="198.918" width="66.2156" height="28.3724" filterUnits="userSpaceOnUse" color-interpolation-filters="sRGB">
<feFlood flood-opacity="0" result="BackgroundImageFix"/>
<feBlend mode="normal" in="SourceGraphic" in2="BackgroundImageFix" result="shape"/>
<feColorMatrix in="SourceAlpha" type="matrix" values="0 0 0 0 0 0 0 0 0 0 0 0 0 0 0 0 0 0 127 0" result="hardAlpha"/>
<feOffset dx="-4.4125"/>
<feGaussianBlur stdDeviation="4.4125"/>
<feComposite in2="hardAlpha" operator="arithmetic" k2="-1" k3="1"/>
<feColorMatrix type="matrix" values="0 0 0 0 0.0941176 0 0 0 0 0.0666667 0 0 0 0 0.117647 0 0 0 1 0"/>
<feBlend mode="normal" in2="shape" result="effect1_innerShadow_11_405"/>
</filter>
<filter id="filter10_i_11_405" x="330.78" y="198.918" width="66.2267" height="28.3724" filterUnits="userSpaceOnUse" color-interpolation-filters="sRGB">
<feFlood flood-opacity="0" result="BackgroundImageFix"/>
<feBlend mode="normal" in="SourceGraphic" in2="BackgroundImageFix" result="shape"/>
<feColorMatrix in="SourceAlpha" type="matrix" values="0 0 0 0 0 0 0 0 0 0 0 0 0 0 0 0 0 0 127 0" result="hardAlpha"/>
<feOffset dx="4.4125"/>
<feGaussianBlur stdDeviation="2.75781"/>
<feComposite in2="hardAlpha" operator="arithmetic" k2="-1" k3="1"/>
<feColorMatrix type="matrix" values="0 0 0 0 0.0862745 0 0 0 0 0.054902 0 0 0 0 0.113725 0 0 0 1 0"/>
<feBlend mode="normal" in2="shape" result="effect1_innerShadow_11_405"/>
</filter>
<filter id="filter11_i_11_405" x="339.892" y="167.509" width="54.1256" height="24.0888" filterUnits="userSpaceOnUse" color-interpolation-filters="sRGB">
<feFlood flood-opacity="0" result="BackgroundImageFix"/>
<feBlend mode="normal" in="SourceGraphic" in2="BackgroundImageFix" result="shape"/>
<feColorMatrix in="SourceAlpha" type="matrix" values="0 0 0 0 0 0 0 0 0 0 0 0 0 0 0 0 0 0 127 0" result="hardAlpha"/>
<feOffset dx="4.4125" dy="-4.4125"/>
<feGaussianBlur stdDeviation="3.30938"/>
<feComposite in2="hardAlpha" operator="arithmetic" k2="-1" k3="1"/>
<feColorMatrix type="matrix" values="0 0 0 0 0.0431373 0 0 0 0 0.0235294 0 0 0 0 0.0313726 0 0 0 1 0"/>
<feBlend mode="normal" in2="shape" result="effect1_innerShadow_11_405"/>
</filter>
<filter id="filter12_i_11_405" x="220.471" y="167.525" width="54.0409" height="24.0185" filterUnits="userSpaceOnUse" color-interpolation-filters="sRGB">
<feFlood flood-opacity="0" result="BackgroundImageFix"/>
<feBlend mode="normal" in="SourceGraphic" in2="BackgroundImageFix" result="shape"/>
<feColorMatrix in="SourceAlpha" type="matrix" values="0 0 0 0 0 0 0 0 0 0 0 0 0 0 0 0 0 0 127 0" result="hardAlpha"/>
<feOffset dx="4.4125" dy="-4.4125"/>
<feGaussianBlur stdDeviation="3.30938"/>
<feComposite in2="hardAlpha" operator="arithmetic" k2="-1" k3="1"/>
<feColorMatrix type="matrix" values="0 0 0 0 0.0431373 0 0 0 0 0.0235294 0 0 0 0 0.0313726 0 0 0 1 0"/>
<feBlend mode="normal" in2="shape" result="effect1_innerShadow_11_405"/>
</filter>
<filter id="filter13_f_11_405" x="256.275" y="207.032" width="17.3758" height="15.3701" filterUnits="userSpaceOnUse" color-interpolation-filters="sRGB">
<feFlood flood-opacity="0" result="BackgroundImageFix"/>
<feBlend mode="normal" in="SourceGraphic" in2="BackgroundImageFix" result="shape"/>
<feGaussianBlur stdDeviation="1.10312" result="effect1_foregroundBlur_11_405"/>
</filter>
<filter id="filter14_f_11_405" x="235.449" y="208.688" width="19.6797" height="20.1651" filterUnits="userSpaceOnUse" color-interpolation-filters="sRGB">
<feFlood flood-opacity="0" result="BackgroundImageFix"/>
<feBlend mode="normal" in="SourceGraphic" in2="BackgroundImageFix" result="shape"/>
<feGaussianBlur stdDeviation="2.20625" result="effect1_foregroundBlur_11_405"/>
</filter>
<filter id="filter15_f_11_405" x="331.376" y="207.298" width="21.7536" height="22.945" filterUnits="userSpaceOnUse" color-interpolation-filters="sRGB">
<feFlood flood-opacity="0" result="BackgroundImageFix"/>
<feBlend mode="normal" in="SourceGraphic" in2="BackgroundImageFix" result="shape"/>
<feGaussianBlur stdDeviation="2.20625" result="effect1_foregroundBlur_11_405"/>
</filter>
<filter id="filter16_f_11_405" x="349.647" y="206.854" width="20.1581" height="15.5437" filterUnits="userSpaceOnUse" color-interpolation-filters="sRGB">
<feFlood flood-opacity="0" result="BackgroundImageFix"/>
<feBlend mode="normal" in="SourceGraphic" in2="BackgroundImageFix" result="shape"/>
<feGaussianBlur stdDeviation="1.10312" result="effect1_foregroundBlur_11_405"/>
</filter>
<filter id="filter17_f_11_405" x="219.541" y="170.21" width="49.8841" height="21.5799" filterUnits="userSpaceOnUse" color-interpolation-filters="sRGB">
<feFlood flood-opacity="0" result="BackgroundImageFix"/>
<feBlend mode="normal" in="SourceGraphic" in2="BackgroundImageFix" result="shape"/>
<feGaussianBlur stdDeviation="2.20625" result="effect1_foregroundBlur_11_405"/>
</filter>
<filter id="filter18_f_11_405" x="339.804" y="170.21" width="49.9058" height="21.5799" filterUnits="userSpaceOnUse" color-interpolation-filters="sRGB">
<feFlood flood-opacity="0" result="BackgroundImageFix"/>
<feBlend mode="normal" in="SourceGraphic" in2="BackgroundImageFix" result="shape"/>
<feGaussianBlur stdDeviation="2.20625" result="effect1_foregroundBlur_11_405"/>
</filter>
<filter id="filter19_if_11_405" x="355.071" y="78.9707" width="92.9283" height="99.5815" filterUnits="userSpaceOnUse" color-interpolation-filters="sRGB">
<feFlood flood-opacity="0" result="BackgroundImageFix"/>
<feBlend mode="normal" in="SourceGraphic" in2="BackgroundImageFix" result="shape"/>
<feColorMatrix in="SourceAlpha" type="matrix" values="0 0 0 0 0 0 0 0 0 0 0 0 0 0 0 0 0 0 127 0" result="hardAlpha"/>
<feOffset dx="11.0312" dy="11.0312"/>
<feGaussianBlur stdDeviation="11.0312"/>
<feComposite in2="hardAlpha" operator="arithmetic" k2="-1" k3="1"/>
<feColorMatrix type="matrix" values="0 0 0 0 0.352941 0 0 0 0 0.341176 0 0 0 0 0.341176 0 0 0 1 0"/>
<feBlend mode="normal" in2="shape" result="effect1_innerShadow_11_405"/>
<feGaussianBlur stdDeviation="3.30938" result="effect2_foregroundBlur_11_405"/>
</filter>
<filter id="filter20_if_11_405" x="181.02" y="51.72" width="193.422" height="127.581" filterUnits="userSpaceOnUse" color-interpolation-filters="sRGB">
<feFlood flood-opacity="0" result="BackgroundImageFix"/>
<feBlend mode="normal" in="SourceGraphic" in2="BackgroundImageFix" result="shape"/>
<feColorMatrix in="SourceAlpha" type="matrix" values="0 0 0 0 0 0 0 0 0 0 0 0 0 0 0 0 0 0 127 0" result="hardAlpha"/>
<feOffset dx="-6.61875" dy="4.4125"/>
<feGaussianBlur stdDeviation="8.825"/>
<feComposite in2="hardAlpha" operator="arithmetic" k2="-1" k3="1"/>
<feColorMatrix type="matrix" values="0 0 0 0 0.345098 0 0 0 0 0.329412 0 0 0 0 0.333333 0 0 0 1 0"/>
<feBlend mode="normal" in2="shape" result="effect1_innerShadow_11_405"/>
<feGaussianBlur stdDeviation="2.75781" result="effect2_foregroundBlur_11_405"/>
</filter>
<filter id="filter21_f_11_405" x="350.747" y="78.9594" width="25.24" height="50.9649" filterUnits="userSpaceOnUse" color-interpolation-filters="sRGB">
<feFlood flood-opacity="0" result="BackgroundImageFix"/>
<feBlend mode="normal" in="SourceGraphic" in2="BackgroundImageFix" result="shape"/>
<feGaussianBlur stdDeviation="2.20625" result="effect1_foregroundBlur_11_405"/>
</filter>
<filter id="filter22_f_11_405" x="176.608" y="96.7876" width="141.763" height="74.3948" filterUnits="userSpaceOnUse" color-interpolation-filters="sRGB">
<feFlood flood-opacity="0" result="BackgroundImageFix"/>
<feBlend mode="normal" in="SourceGraphic" in2="BackgroundImageFix" result="shape"/>
<feGaussianBlur stdDeviation="8.27344" result="effect1_foregroundBlur_11_405"/>
</filter>
<filter id="filter23_i_11_405" x="97.9104" y="86.9917" width="16.0174" height="16.0174" filterUnits="userSpaceOnUse" color-interpolation-filters="sRGB">
<feFlood flood-opacity="0" result="BackgroundImageFix"/>
<feBlend mode="normal" in="SourceGraphic" in2="BackgroundImageFix" result="shape"/>
<feColorMatrix in="SourceAlpha" type="matrix" values="0 0 0 0 0 0 0 0 0 0 0 0 0 0 0 0 0 0 127 0" result="hardAlpha"/>
<feOffset dx="2.20625" dy="-2.20625"/>
<feGaussianBlur stdDeviation="2.20625"/>
<feComposite in2="hardAlpha" operator="arithmetic" k2="-1" k3="1"/>
<feColorMatrix type="matrix" values="0 0 0 0 0.52549 0 0 0 0 0.388235 0 0 0 0 0.501961 0 0 0 1 0"/>
<feBlend mode="normal" in2="shape" result="effect1_innerShadow_11_405"/>
</filter>
<filter id="filter24_ii_11_405" x="80.2583" y="104.664" width="84.5877" height="96.8005" filterUnits="userSpaceOnUse" color-interpolation-filters="sRGB">
<feFlood flood-opacity="0" result="BackgroundImageFix"/>
<feBlend mode="normal" in="SourceGraphic" in2="BackgroundImageFix" result="shape"/>
<feColorMatrix in="SourceAlpha" type="matrix" values="0 0 0 0 0 0 0 0 0 0 0 0 0 0 0 0 0 0 127 0" result="hardAlpha"/>
<feOffset dx="1.10312" dy="-1.10312"/>
<feGaussianBlur stdDeviation="2.20625"/>
<feComposite in2="hardAlpha" operator="arithmetic" k2="-1" k3="1"/>
<feColorMatrix type="matrix" values="0 0 0 0 0.945098 0 0 0 0 0.45098 0 0 0 0 0.333333 0 0 0 1 0"/>
<feBlend mode="normal" in2="shape" result="effect1_innerShadow_11_405"/>
<feColorMatrix in="SourceAlpha" type="matrix" values="0 0 0 0 0 0 0 0 0 0 0 0 0 0 0 0 0 0 127 0" result="hardAlpha"/>
<feOffset dx="-2.20625" dy="2.20625"/>
<feGaussianBlur stdDeviation="2.20625"/>
<feComposite in2="hardAlpha" operator="arithmetic" k2="-1" k3="1"/>
<feColorMatrix type="matrix" values="0 0 0 0 1 0 0 0 0 0.282353 0 0 0 0 0.435294 0 0 0 1 0"/>
<feBlend mode="normal" in2="effect1_innerShadow_11_405" result="effect2_innerShadow_11_405"/>
</filter>
<filter id="filter25_i_11_405" x="2" y="72.0922" width="94.4839" height="82.3814" filterUnits="userSpaceOnUse" color-interpolation-filters="sRGB">
<feFlood flood-opacity="0" result="BackgroundImageFix"/>
<feBlend mode="normal" in="SourceGraphic" in2="BackgroundImageFix" result="shape"/>
<feColorMatrix in="SourceAlpha" type="matrix" values="0 0 0 0 0 0 0 0 0 0 0 0 0 0 0 0 0 0 127 0" result="hardAlpha"/>
<feOffset dx="1.10312" dy="-1.10312"/>
<feGaussianBlur stdDeviation="1.10312"/>
<feComposite in2="hardAlpha" operator="arithmetic" k2="-1" k3="1"/>
<feColorMatrix type="matrix" values="0 0 0 0 0.882353 0 0 0 0 0.203922 0 0 0 0 0.435294 0 0 0 1 0"/>
<feBlend mode="normal" in2="shape" result="effect1_innerShadow_11_405"/>
</filter>
<filter id="filter26_f_11_405" x="0.218115" y="71.461" width="84.7642" height="84.7642" filterUnits="userSpaceOnUse" color-interpolation-filters="sRGB">
<feFlood flood-opacity="0" result="BackgroundImageFix"/>
<feBlend mode="normal" in="SourceGraphic" in2="BackgroundImageFix" result="shape"/>
<feGaussianBlur stdDeviation="2.20625" result="effect1_foregroundBlur_11_405"/>
</filter>
<filter id="filter27_f_11_405" x="12.4405" y="83.6823" width="60.3189" height="60.3189" filterUnits="userSpaceOnUse" color-interpolation-filters="sRGB">
<feFlood flood-opacity="0" result="BackgroundImageFix"/>
<feBlend mode="normal" in="SourceGraphic" in2="BackgroundImageFix" result="shape"/>
<feGaussianBlur stdDeviation="2.20625" result="effect1_foregroundBlur_11_405"/>
</filter>
<filter id="filter28_f_11_405" x="92.9463" y="128.093" width="60.3189" height="60.3189" filterUnits="userSpaceOnUse" color-interpolation-filters="sRGB">
<feFlood flood-opacity="0" result="BackgroundImageFix"/>
<feBlend mode="normal" in="SourceGraphic" in2="BackgroundImageFix" result="shape"/>
<feGaussianBlur stdDeviation="2.20625" result="effect1_foregroundBlur_11_405"/>
</filter>
<filter id="filter29_f_11_405" x="81.1435" y="116.292" width="83.9258" height="83.9258" filterUnits="userSpaceOnUse" color-interpolation-filters="sRGB">
<feFlood flood-opacity="0" result="BackgroundImageFix"/>
<feBlend mode="normal" in="SourceGraphic" in2="BackgroundImageFix" result="shape"/>
<feGaussianBlur stdDeviation="2.20625" result="effect1_foregroundBlur_11_405"/>
</filter>
<linearGradient id="paint0_linear_11_405" x1="202.045" y1="76.5146" x2="352.181" y2="354.612" gradientUnits="userSpaceOnUse">
<stop stop-color="#393134"/>
<stop offset="1" stop-color="#1A1718"/>
</linearGradient>
<radialGradient id="paint1_radial_11_405" cx="0" cy="0" r="1" gradientUnits="userSpaceOnUse" gradientTransform="translate(312.248 285.093) rotate(82.4606) scale(101.462 126.746)">
<stop offset="0.591" stop-color="#171418"/>
<stop offset="1" stop-color="#171418" stop-opacity="0"/>
</radialGradient>
<radialGradient id="paint2_radial_11_405" cx="0" cy="0" r="1" gradientUnits="userSpaceOnUse" gradientTransform="translate(374.376 291.006) rotate(33.996) scale(76.7196 100.804)">
<stop offset="0.258" stop-color="#181518"/>
<stop offset="1" stop-color="#181518" stop-opacity="0"/>
</radialGradient>
<radialGradient id="paint3_radial_11_405" cx="0" cy="0" r="1" gradientUnits="userSpaceOnUse" gradientTransform="translate(412.484 234.794) rotate(52.595) scale(47.484 36.4611)">
<stop offset="0.334" stop-color="#040101"/>
<stop offset="1" stop-color="#040101" stop-opacity="0"/>
</radialGradient>
<radialGradient id="paint4_radial_11_405" cx="0" cy="0" r="1" gradientUnits="userSpaceOnUse" gradientTransform="translate(402.473 190.035) rotate(58.57) scale(54.606 38.4651)">
<stop offset="0.321" stop-color="#040002"/>
<stop offset="1" stop-color="#040002" stop-opacity="0"/>
</radialGradient>
<radialGradient id="paint5_radial_11_405" cx="0" cy="0" r="1" gradientUnits="userSpaceOnUse" gradientTransform="translate(383.267 52.1134) rotate(117.728) scale(65.1725 90.4692)">
<stop stop-color="#474445"/>
<stop offset="1" stop-color="#474445" stop-opacity="0"/>
</radialGradient>
<radialGradient id="paint6_radial_11_405" cx="0" cy="0" r="1" gradientUnits="userSpaceOnUse" gradientTransform="translate(176.931 97.9548) rotate(45.002) scale(44.9742 62.8508)">
<stop stop-color="#4A4446"/>
<stop offset="1" stop-color="#4A4446" stop-opacity="0"/>
</radialGradient>
<radialGradient id="paint7_radial_11_405" cx="0" cy="0" r="1" gradientUnits="userSpaceOnUse" gradientTransform="translate(139.917 211.118) rotate(16.2211) scale(42.3622 88.3427)">
<stop stop-color="#3B3638"/>
<stop offset="1" stop-color="#3B3638" stop-opacity="0"/>
</radialGradient>
<radialGradient id="paint8_radial_11_405" cx="0" cy="0" r="1" gradientUnits="userSpaceOnUse" gradientTransform="translate(153.231 286.562) rotate(14.037) scale(64.036 81.5723)">
<stop stop-color="#464444"/>
<stop offset="1" stop-color="#464444" stop-opacity="0"/>
</radialGradient>
<radialGradient id="paint9_radial_11_405" cx="0" cy="0" r="1" gradientUnits="userSpaceOnUse" gradientTransform="translate(201.169 157.441) rotate(-71.157) scale(61.7825 48.8664)">
<stop stop-color="#575455"/>
<stop offset="1" stop-color="#575455" stop-opacity="0"/>
</radialGradient>
<radialGradient id="paint10_radial_11_405" cx="0" cy="0" r="1" gradientUnits="userSpaceOnUse" gradientTransform="translate(441.093 210.324) rotate(174.012) scale(33.3623 54.0564)">
<stop stop-color="#413733"/>
<stop offset="1" stop-color="#413733" stop-opacity="0"/>
</radialGradient>
<radialGradient id="paint11_radial_11_405" cx="0" cy="0" r="1" gradientUnits="userSpaceOnUse" gradientTransform="translate(145.753 443.986) rotate(25.929) scale(332.398 382.701)">
<stop stop-color="#A46EE0"/>
<stop offset="1" stop-color="#8956CF"/>
</radialGradient>
<radialGradient id="paint12_radial_11_405" cx="0" cy="0" r="1" gradientUnits="userSpaceOnUse" gradientTransform="translate(242.817 600.477) rotate(-53.825) scale(295.521 425.241)">
<stop offset="0.895" stop-color="#845B99" stop-opacity="0"/>
<stop offset="1" stop-color="#845B99"/>
</radialGradient>
<radialGradient id="paint13_radial_11_405" cx="0" cy="0" r="1" gradientUnits="userSpaceOnUse" gradientTransform="translate(332.716 350.862) rotate(11.547) scale(130.887 37.581)">
<stop stop-color="#412558"/>
<stop offset="1" stop-color="#643A7C" stop-opacity="0"/>
</radialGradient>
<radialGradient id="paint14_radial_11_405" cx="0" cy="0" r="1" gradientUnits="userSpaceOnUse" gradientTransform="translate(152.869 589.336) scale(86.7888 427.373)">
<stop offset="0.133" stop-color="#AE81F2"/>
<stop offset="1" stop-color="#A46BD8" stop-opacity="0"/>
</radialGradient>
<radialGradient id="paint15_radial_11_405" cx="0" cy="0" r="1" gradientUnits="userSpaceOnUse" gradientTransform="translate(464.413 589.336) rotate(180) scale(33.0937 525.366)">
<stop stop-color="#8654D1"/>
<stop offset="1" stop-color="#9860D3" stop-opacity="0"/>
</radialGradient>
<radialGradient id="paint16_radial_11_405" cx="0" cy="0" r="1" gradientUnits="userSpaceOnUse" gradientTransform="translate(152.185 572.144) rotate(180) scale(71.7439 201.492)">
<stop offset="0.576" stop-color="#A677EB"/>
<stop offset="1" stop-color="#9775DD"/>
</radialGradient>
<radialGradient id="paint17_radial_11_405" cx="0" cy="0" r="1" gradientUnits="userSpaceOnUse" gradientTransform="translate(152.185 589.331) rotate(180) scale(19.1957 264.121)">
<stop stop-color="#8752D9"/>
<stop offset="1" stop-color="#8752D9" stop-opacity="0"/>
</radialGradient>
<radialGradient id="paint18_radial_11_405" cx="0" cy="0" r="1" gradientUnits="userSpaceOnUse" gradientTransform="translate(466.951 589.336) scale(81.8214 195.35)">
<stop offset="0.614" stop-color="#8052C3" stop-opacity="0"/>
<stop offset="1" stop-color="#8267B6"/>
</radialGradient>
<radialGradient id="paint19_radial_11_405" cx="0" cy="0" r="1" gradientUnits="userSpaceOnUse" gradientTransform="translate(466.951 589.336) scale(18.6715 230.708)">
<stop offset="0.111" stop-color="#9A6FDB"/>
<stop offset="1" stop-color="#9A6FDB" stop-opacity="0"/>
</radialGradient>
<radialGradient id="paint20_radial_11_405" cx="0" cy="0" r="1" gradientUnits="userSpaceOnUse" gradientTransform="translate(325.948 353.068) rotate(107.819) scale(40.5548 70.3432)">
<stop offset="0.243" stop-color="#C7868A"/>
<stop offset="1" stop-color="#C7868A" stop-opacity="0"/>
</radialGradient>
<radialGradient id="paint21_radial_11_405" cx="0" cy="0" r="1" gradientUnits="userSpaceOnUse" gradientTransform="translate(240.125 372.262) rotate(37.605) scale(82.6373 35.7918)">
<stop offset="0.285" stop-color="#FEC2B9"/>
<stop offset="1" stop-color="#FEC2B9" stop-opacity="0"/>
</radialGradient>
<linearGradient id="paint22_linear_11_405" x1="464.104" y1="332.418" x2="146.934" y2="332.418" gradientUnits="userSpaceOnUse">
<stop offset="0.006" stop-color="#CCCCCC"/>
<stop offset="1" stop-color="#E6E6E6"/>
</linearGradient>
<linearGradient id="paint23_linear_11_405" x1="464.104" y1="331.756" x2="146.933" y2="331.756" gradientUnits="userSpaceOnUse">
<stop offset="0.006" stop-color="#CCCCCC"/>
<stop offset="1" stop-color="#E6E6E6"/>
</linearGradient>
<linearGradient id="paint24_linear_11_405" x1="444.469" y1="231.834" x2="379.186" y2="231.834" gradientUnits="userSpaceOnUse">
<stop stop-color="#CC9987"/>
<stop offset="1" stop-color="#AC7864"/>
</linearGradient>
<radialGradient id="paint25_radial_11_405" cx="0" cy="0" r="1" gradientUnits="userSpaceOnUse" gradientTransform="translate(206.106 251.425) rotate(-131.896) scale(60.361 73.6979)">
<stop offset="0.444" stop-color="#E5B1A5"/>
<stop offset="0.944" stop-color="#FFD8C1"/>
</radialGradient>
<radialGradient id="paint26_radial_11_405" cx="0" cy="0" r="1" gradientUnits="userSpaceOnUse" gradientTransform="translate(193.751 192.827) rotate(150.729) scale(33.2781 9.40827)">
<stop stop-color="#DBA98B"/>
<stop offset="1" stop-color="#DBA98B" stop-opacity="0"/>
</radialGradient>
<radialGradient id="paint27_radial_11_405" cx="0" cy="0" r="1" gradientUnits="userSpaceOnUse" gradientTransform="translate(208.709 232.383) rotate(-175.746) scale(33.404 26.1128)">
<stop offset="0.719" stop-color="#F4B89E" stop-opacity="0"/>
<stop offset="1" stop-color="#F5B99D"/>
</radialGradient>
<radialGradient id="paint28_radial_11_405" cx="0" cy="0" r="1" gradientUnits="userSpaceOnUse" gradientTransform="translate(407.094 229.912) scale(26.6252 21.0042)">
<stop offset="0.667" stop-color="#BC8272" stop-opacity="0"/>
<stop offset="1" stop-color="#BC8272"/>
</radialGradient>
<radialGradient id="paint29_radial_11_405" cx="0" cy="0" r="1" gradientUnits="userSpaceOnUse" gradientTransform="translate(242.509 218.044) rotate(24.756) scale(158.006 211.488)">
<stop stop-color="#FFD7BF"/>
<stop offset="1" stop-color="#D59F97"/>
</radialGradient>
<radialGradient id="paint30_radial_11_405" cx="0" cy="0" r="1" gradientUnits="userSpaceOnUse" gradientTransform="translate(233.86 248.115) rotate(7.42594) scale(77.0077 85.0029)">
<stop stop-color="#FFDEBF"/>
<stop offset="1" stop-color="#FFDEBF" stop-opacity="0"/>
</radialGradient>
<radialGradient id="paint31_radial_11_405" cx="0" cy="0" r="1" gradientUnits="userSpaceOnUse" gradientTransform="translate(358.094 379.74) rotate(-109.041) scale(88.4115 112.178)">
<stop stop-color="#B87C92"/>
<stop offset="1" stop-color="#B87C92" stop-opacity="0"/>
</radialGradient>
<radialGradient id="paint32_radial_11_405" cx="0" cy="0" r="1" gradientUnits="userSpaceOnUse" gradientTransform="translate(305.607 213.256) rotate(90) scale(148.363 171.736)">
<stop offset="0.567" stop-color="#CC9299" stop-opacity="0"/>
<stop offset="1" stop-color="#BE7C90"/>
</radialGradient>
<radialGradient id="paint33_radial_11_405" cx="0" cy="0" r="1" gradientUnits="userSpaceOnUse" gradientTransform="translate(265.634 256.232) rotate(11.103) scale(155.262 267.314)">
<stop offset="0.795" stop-color="#E2A895" stop-opacity="0"/>
<stop offset="1" stop-color="#E2A895"/>
</radialGradient>
<radialGradient id="paint34_radial_11_405" cx="0" cy="0" r="1" gradientUnits="userSpaceOnUse" gradientTransform="translate(254.819 208.822) rotate(-90) scale(25.3889 31.1591)">
<stop stop-color="#F6BAA9"/>
<stop offset="1" stop-color="#F6BAA9" stop-opacity="0"/>
</radialGradient>
<radialGradient id="paint35_radial_11_405" cx="0" cy="0" r="1" gradientUnits="userSpaceOnUse" gradientTransform="translate(351.409 203.769) rotate(-90) scale(28.9572 33.1871)">
<stop stop-color="#D09790"/>
<stop offset="1" stop-color="#D09790" stop-opacity="0"/>
</radialGradient>
<radialGradient id="paint36_radial_11_405" cx="0" cy="0" r="1" gradientUnits="userSpaceOnUse" gradientTransform="translate(193.177 241.651) scale(28.3565 142.205)">
<stop stop-color="#FFD8BC"/>
<stop offset="1" stop-color="#FFD8BC" stop-opacity="0"/>
</radialGradient>
<radialGradient id="paint37_radial_11_405" cx="0" cy="0" r="1" gradientUnits="userSpaceOnUse" gradientTransform="translate(353.792 85.713) rotate(108.166) scale(92.8793 161.807)">
<stop stop-color="#A47463"/>
<stop offset="1" stop-color="#A47463" stop-opacity="0"/>
</radialGradient>
<radialGradient id="paint38_radial_11_405" cx="0" cy="0" r="1" gradientUnits="userSpaceOnUse" gradientTransform="translate(288.288 257.692) rotate(-77.4361) scale(46.2023 14.2393)">
<stop offset="0.017" stop-color="#FFDCC5"/>
<stop offset="1" stop-color="#FFDCC5" stop-opacity="0"/>
</radialGradient>
<linearGradient id="paint39_linear_11_405" x1="326.302" y1="259.281" x2="305.585" y2="259.281" gradientUnits="userSpaceOnUse">
<stop stop-color="#DFA791"/>
<stop offset="1" stop-color="#DFA791" stop-opacity="0"/>
</linearGradient>
<linearGradient id="paint40_linear_11_405" x1="305.585" y1="276.908" x2="305.585" y2="263.45" gradientUnits="userSpaceOnUse">
<stop stop-color="#D29394"/>
<stop offset="1" stop-color="#D29394" stop-opacity="0"/>
</linearGradient>
<radialGradient id="paint41_radial_11_405" cx="0" cy="0" r="1" gradientUnits="userSpaceOnUse" gradientTransform="translate(293.583 262.347) scale(17.1955 4.80742)">
<stop stop-color="#FFD6C2"/>
<stop offset="1" stop-color="#FFD6C2" stop-opacity="0"/>
</radialGradient>
<linearGradient id="paint42_linear_11_405" x1="329.082" y1="308.017" x2="318.911" y2="292.309" gradientUnits="userSpaceOnUse">
<stop stop-color="#EABBAB"/>
<stop offset="0.663" stop-color="#EABBAB" stop-opacity="0"/>
</linearGradient>
<radialGradient id="paint43_radial_11_405" cx="0" cy="0" r="1" gradientUnits="userSpaceOnUse" gradientTransform="translate(257.445 216.741) rotate(90) scale(17.8998 28.4714)">
<stop offset="0.802" stop-color="#7D574A"/>
<stop offset="1" stop-color="#664944"/>
</radialGradient>
<radialGradient id="paint44_radial_11_405" cx="0" cy="0" r="1" gradientUnits="userSpaceOnUse" gradientTransform="translate(262.475 218.596) rotate(-52.188) scale(8.34605 11.4904)">
<stop offset="0.766" stop-color="#FFE6E2" stop-opacity="0"/>
<stop offset="0.966" stop-color="#FFE6E2"/>
</radialGradient>
<linearGradient id="paint45_linear_11_405" x1="240.281" y1="217.932" x2="247.208" y2="222.19" gradientUnits="userSpaceOnUse">
<stop stop-color="#B4948D"/>
<stop offset="1" stop-color="#B4948D" stop-opacity="0"/>
</linearGradient>
<radialGradient id="paint46_radial_11_405" cx="0" cy="0" r="1" gradientUnits="userSpaceOnUse" gradientTransform="translate(353.726 216.741) rotate(90) scale(17.8998 28.4717)">
<stop offset="0.802" stop-color="#7D574A"/>
<stop offset="1" stop-color="#664944"/>
</radialGradient>
<linearGradient id="paint47_linear_11_405" x1="337.311" y1="217.932" x2="344.238" y2="222.191" gradientUnits="userSpaceOnUse">
<stop stop-color="#B4948D"/>
<stop offset="1" stop-color="#B4948D" stop-opacity="0"/>
</linearGradient>
<radialGradient id="paint48_radial_11_405" cx="0" cy="0" r="1" gradientUnits="userSpaceOnUse" gradientTransform="translate(356.764 220.923) rotate(-61.189) scale(10.9015 13.104)">
<stop offset="0.766" stop-color="#FFE6E2" stop-opacity="0"/>
<stop offset="0.966" stop-color="#FFE6E2"/>
</radialGradient>
<radialGradient id="paint49_radial_11_405" cx="0" cy="0" r="1" gradientUnits="userSpaceOnUse" gradientTransform="translate(430.444 169.954) rotate(-114.609) scale(66.8646 34.2064)">
<stop stop-color="#433838"/>
<stop offset="1" stop-color="#433838" stop-opacity="0"/>
</radialGradient>
<radialGradient id="paint50_radial_11_405" cx="0" cy="0" r="1" gradientUnits="userSpaceOnUse" gradientTransform="translate(263.432 55.0693) rotate(64.316) scale(107.508 175.77)">
<stop offset="0.639" stop-color="#1F0D24" stop-opacity="0"/>
<stop offset="1" stop-color="#1F0D24"/>
</radialGradient>
<radialGradient id="paint51_radial_11_405" cx="0" cy="0" r="1" gradientUnits="userSpaceOnUse" gradientTransform="translate(300.974 63.2301) rotate(81.2538) scale(30.5187 65.659)">
<stop stop-color="#4C4749"/>
<stop offset="1" stop-color="#4C4749" stop-opacity="0"/>
</radialGradient>
<linearGradient id="paint52_linear_11_405" x1="369.39" y1="93.1679" x2="357.366" y2="121.253" gradientUnits="userSpaceOnUse">
<stop stop-color="#1A1316"/>
<stop offset="1" stop-color="#24182D"/>
</linearGradient>
<radialGradient id="paint53_radial_11_405" cx="0" cy="0" r="1" gradientUnits="userSpaceOnUse" gradientTransform="translate(110.729 78.5416) rotate(15.717) scale(142.53 177.538)">
<stop stop-color="#1F1021"/>
<stop offset="0.687" stop-color="#332A2E"/>
<stop offset="0.843" stop-color="#332A2E" stop-opacity="0"/>
</radialGradient>
<linearGradient id="paint54_linear_11_405" x1="78.1214" y1="53.0603" x2="104.398" y2="45.4487" gradientUnits="userSpaceOnUse">
<stop stop-color="#9B8299"/>
<stop offset="1" stop-color="#D9B4C8"/>
</linearGradient>
<linearGradient id="paint55_linear_11_405" x1="103.449" y1="85.9996" x2="101.817" y2="79.6236" gradientUnits="userSpaceOnUse">
<stop offset="0.16" stop-color="#A28B95"/>
<stop offset="1" stop-color="#C0A0B5" stop-opacity="0"/>
</linearGradient>
<linearGradient id="paint56_linear_11_405" x1="123.614" y1="104.884" x2="117.767" y2="76.269" gradientUnits="userSpaceOnUse">
<stop stop-color="#9B8299"/>
<stop offset="1" stop-color="#D9B4C8"/>
</linearGradient>
<linearGradient id="paint57_linear_11_405" x1="92.4834" y1="106.693" x2="96.8518" y2="105.458" gradientUnits="userSpaceOnUse">
<stop stop-color="#93768E"/>
<stop offset="1" stop-color="#A2889F" stop-opacity="0"/>
</linearGradient>
<radialGradient id="paint58_radial_11_405" cx="0" cy="0" r="1" gradientUnits="userSpaceOnUse" gradientTransform="translate(100.977 94.0083) rotate(38.82) scale(9.62346 9.62345)">
<stop offset="0.168" stop-color="#EBDBE4"/>
<stop offset="1" stop-color="#C7B1B5"/>
</radialGradient>
<radialGradient id="paint59_radial_11_405" cx="0" cy="0" r="1" gradientUnits="userSpaceOnUse" gradientTransform="translate(108.015 103.759) rotate(-112.357) scale(11.5552 27.9556)">
<stop offset="0.147" stop-color="#996E9F"/>
<stop offset="1" stop-color="#C8B3B7" stop-opacity="0"/>
</radialGradient>
<radialGradient id="paint60_radial_11_405" cx="0" cy="0" r="1" gradientUnits="userSpaceOnUse" gradientTransform="translate(112.979 94.1179) rotate(173.889) scale(9.70753 12.2601)">
<stop offset="0.181" stop-color="#A4888C"/>
<stop offset="1" stop-color="#A4888C" stop-opacity="0"/>
</radialGradient>
<radialGradient id="paint61_radial_11_405" cx="0" cy="0" r="1" gradientUnits="userSpaceOnUse" gradientTransform="translate(156.487 164.409) rotate(-143.712) scale(60.2843 95.7219)">
<stop offset="0.205" stop-color="#FF7046"/>
<stop offset="1" stop-color="#FF2D78"/>
</radialGradient>
<linearGradient id="paint62_linear_11_405" x1="107.067" y1="108.679" x2="108.368" y2="113.665" gradientUnits="userSpaceOnUse">
<stop offset="0.209" stop-color="#B71143"/>
<stop offset="1" stop-color="#FF3178" stop-opacity="0"/>
</linearGradient>
<radialGradient id="paint63_radial_11_405" cx="0" cy="0" r="1" gradientUnits="userSpaceOnUse" gradientTransform="translate(87.0778 124.19) rotate(-150.945) scale(63.8852 90.2697)">
<stop offset="0.205" stop-color="#FF7046"/>
<stop offset="1" stop-color="#FF2D78"/>
</radialGradient>
<linearGradient id="paint64_linear_11_405" x1="79.4887" y1="121.962" x2="9.10934" y2="89.4861" gradientUnits="userSpaceOnUse">
<stop offset="0.616" stop-color="#FF4F4F"/>
<stop offset="0.9" stop-color="#FF6792"/>
</linearGradient>
<linearGradient id="paint65_linear_11_405" x1="67.2658" y1="119.269" x2="20.2065" y2="97.5597" gradientUnits="userSpaceOnUse">
<stop offset="0.247" stop-color="#FF7E7A"/>
<stop offset="0.669" stop-color="#FF7E7A" stop-opacity="0"/>
</linearGradient>
<linearGradient id="paint66_linear_11_405" x1="147.75" y1="163.702" x2="100.712" y2="141.97" gradientUnits="userSpaceOnUse">
<stop offset="0.247" stop-color="#FF9266"/>
<stop offset="0.669" stop-color="#FF9266" stop-opacity="0"/>
</linearGradient>
<linearGradient id="paint67_linear_11_405" x1="86.6592" y1="146.319" x2="123.106" y2="158.255" gradientUnits="userSpaceOnUse">
<stop stop-color="#FF5C88"/>
<stop offset="1" stop-color="#FF5185" stop-opacity="0"/>
</linearGradient>
</defs>
</svg>
