<svg width="54" height="54" viewBox="0 0 54 54" fill="none" xmlns="http://www.w3.org/2000/svg">
<path fill-rule="evenodd" clip-rule="evenodd" d="M0 24C0 12.687 -3.57628e-07 7.029 3.516 3.516C7.032 0.00299978 12.687 0 24 0H30C41.313 0 46.971 -3.57628e-07 50.484 3.516C53.997 7.032 54 12.687 54 24V30C54 41.313 54 46.971 50.484 50.484C46.968 53.997 41.313 54 30 54H24C12.687 54 7.029 54 3.516 50.484C0.00299978 46.968 0 41.313 0 30V24ZM45 13.5C45 14.6935 44.5259 15.8381 43.682 16.682C42.8381 17.5259 41.6935 18 40.5 18C39.3065 18 38.1619 17.5259 37.318 16.682C36.4741 15.8381 36 14.6935 36 13.5C36 12.3065 36.4741 11.1619 37.318 10.318C38.1619 9.4741 39.3065 9 40.5 9C41.6935 9 42.8381 9.4741 43.682 10.318C44.5259 11.1619 45 12.3065 45 13.5ZM33 30C33 31.5913 32.3679 33.1174 31.2426 34.2426C30.1174 35.3679 28.5913 36 27 36C25.4087 36 23.8826 35.3679 22.7574 34.2426C21.6321 33.1174 21 31.5913 21 30C21 28.4087 21.6321 26.8826 22.7574 25.7574C23.8826 24.6321 25.4087 24 27 24C28.5913 24 30.1174 24.6321 31.2426 25.7574C32.3679 26.8826 33 28.4087 33 30ZM39 30C39 33.1826 37.7357 36.2348 35.4853 38.4853C33.2348 40.7357 30.1826 42 27 42C23.8174 42 20.7652 40.7357 18.5147 38.4853C16.2643 36.2348 15 33.1826 15 30C15 26.8174 16.2643 23.7652 18.5147 21.5147C20.7652 19.2643 23.8174 18 27 18C30.1826 18 33.2348 19.2643 35.4853 21.5147C37.7357 23.7652 39 26.8174 39 30Z" fill="black"/>
</svg>
