<svg width="96" height="96" viewBox="0 0 96 96" fill="none" xmlns="http://www.w3.org/2000/svg">
<g clip-path="url(#clip0_41_309)">
<path fill-rule="evenodd" clip-rule="evenodd" d="M43.7595 31.7606C44.8845 30.637 46.4095 30.0059 47.9995 30.0059C49.5895 30.0059 51.1145 30.637 52.2395 31.7606L74.8715 54.3846C75.4286 54.9419 75.8704 55.6035 76.1718 56.3316C76.4732 57.0597 76.6282 57.84 76.628 58.628C76.6278 59.416 76.4724 60.1962 76.1707 60.9242C75.869 61.6521 75.4269 62.3135 74.8695 62.8706C74.3122 63.4276 73.6506 63.8695 72.9225 64.1709C72.1944 64.4723 71.4141 64.6273 70.6261 64.6271C69.8381 64.6269 69.0579 64.4715 68.3299 64.1698C67.602 63.8681 66.9406 63.4259 66.3835 62.8686L47.9995 44.4886L29.6155 62.8726C29.0623 63.4459 28.4005 63.9033 27.6686 64.2181C26.9367 64.5329 26.1495 64.6988 25.3528 64.7061C24.5561 64.7134 23.766 64.5619 23.0285 64.2606C22.291 63.9592 21.6208 63.514 21.0572 62.951C20.4936 62.3879 20.0478 61.7182 19.7457 60.9809C19.4437 60.2437 19.2915 59.4537 19.2981 58.657C19.3046 57.8604 19.4697 57.073 19.7838 56.3408C20.098 55.6086 20.5547 54.9463 21.1275 54.3926L43.7595 31.7606Z" fill="black"/>
</g>
<defs>
<clipPath id="clip0_41_309">
<rect width="96" height="96" fill="white"/>
</clipPath>
</defs>
</svg>
