<svg width="54" height="54" viewBox="0 0 54 54" fill="none" xmlns="http://www.w3.org/2000/svg">
<path d="M3.78 3.78C7.15256e-07 7.596 0 13.698 0 25.92V28.08C0 40.284 7.15256e-07 46.386 3.78 50.22C7.596 54 13.698 54 25.92 54H28.08C40.284 54 46.386 54 50.22 50.22C54 46.404 54 40.302 54 28.08V25.92C54 13.716 54 7.614 50.22 3.78C46.404 7.15256e-07 40.302 0 28.08 0H25.92C13.716 0 7.614 7.15256e-07 3.78 3.78ZM9.108 16.434H15.3C15.498 26.73 20.034 31.086 23.634 31.986V16.434H29.448V25.308C32.994 24.93 36.738 20.88 37.998 16.416H43.794C43.3211 18.7267 42.3769 20.915 41.0204 22.8444C39.6639 24.7739 37.9242 26.403 35.91 27.63C38.1583 28.7486 40.1438 30.3313 41.7355 32.2736C43.3272 34.2159 44.489 36.4737 45.144 38.898H38.754C37.386 34.632 33.966 31.32 29.448 30.87V38.898H28.728C16.416 38.898 9.396 30.474 9.108 16.434Z" fill="black"/>
</svg>
